<?xml version="1.0" encoding="UTF-8"?>
<svg version="1.1" xmlns="http://www.w3.org/2000/svg" width="500" height="500">
<path d="M0 0 C1.20215904 -0.01073296 1.20215904 -0.01073296 2.42860413 -0.02168274 C3.29925003 -0.02437164 4.16989594 -0.02706055 5.06692505 -0.02983093 C5.9911174 -0.03640213 6.91530975 -0.04297333 7.86750793 -0.04974365 C10.92763354 -0.06945787 13.98770994 -0.08113941 17.04788208 -0.09111023 C18.09689823 -0.09518576 19.14591438 -0.09926128 20.2267189 -0.10346031 C25.78657076 -0.12431997 31.346398 -0.13861826 36.90628052 -0.147995 C42.61983628 -0.15901741 48.33299809 -0.19336944 54.04641533 -0.23316669 C58.46312121 -0.25945844 62.87973537 -0.26769827 67.2965126 -0.27127647 C69.40061202 -0.27611548 71.5047081 -0.2876517 73.60873032 -0.30631447 C93.74869287 -0.47375338 110.32392151 2.35033511 125.52444458 16.73310852 C131.16573579 22.39271561 136.31938806 28.17546791 140.93069458 34.70967102 C148.187462 44.84906739 156.23340471 52.97837675 168.93069458 55.14717102 C170.54282746 55.23428729 172.15788633 55.275995 173.77236938 55.2784729 C174.71966919 55.28248108 175.66696899 55.28648926 176.64297485 55.2906189 C177.67055908 55.29009018 178.69814331 55.28956146 179.75686646 55.28901672 C180.84862183 55.29249115 181.9403772 55.29596558 183.06521606 55.29954529 C185.4349161 55.30689215 187.80462297 55.31224323 190.17433167 55.31583595 C193.93371104 55.32301773 197.69296112 55.33869901 201.45230103 55.35717773 C212.14104837 55.40955451 222.82971365 55.45800931 233.51858521 55.47309875 C240.06026689 55.48242817 246.60167909 55.51265143 253.14323425 55.55441856 C255.62769608 55.56667727 258.11220389 55.57185927 260.59669495 55.56962013 C278.7658364 55.55727869 293.4003403 55.95755561 307.61819458 68.52217102 C310.07938299 71.31595246 312.26089792 74.23937555 314.46975708 77.23310852 C317.43591697 81.11925383 320.78974621 84.07658212 324.74319458 86.89717102 C335.44207205 94.81030304 341.79112074 105.07451177 343.93069458 118.14717102 C344.19114923 121.8874762 344.18454692 125.61024444 344.15774536 129.35835266 C344.15803741 130.44231323 344.15832947 131.5262738 344.15863037 132.64308167 C344.15724578 136.19791387 344.14172559 139.75253203 344.12600708 143.30732727 C344.12227386 145.78311041 344.11942835 148.25889503 344.11743164 150.73468018 C344.10981956 157.23000718 344.09019191 163.72524381 344.06802368 170.22053528 C344.04751294 176.85687707 344.03841876 183.49322775 344.02835083 190.1295929 C344.00694372 203.13549068 343.97322517 216.14132603 343.93069458 229.14717102 C344.80604858 229.12904358 345.68140259 229.11091614 346.58328247 229.09223938 C347.74078003 229.07814026 348.89827759 229.06404114 350.09085083 229.04951477 C351.80606934 229.02232361 351.80606934 229.02232361 353.55593872 228.99458313 C360.19781978 229.29489244 365.76389986 231.48210551 370.36819458 236.33467102 C375.26986362 243.04883101 376.39087803 250.32272263 376.32913208 258.45967102 C376.33200226 259.31343323 376.33487244 260.16719543 376.33782959 261.04682922 C376.33985637 262.83842132 376.3344244 264.63003626 376.32180786 266.42158508 C376.3057339 269.14052008 376.32170372 271.85796893 376.34085083 274.57685852 C376.33886815 276.32946592 376.33502397 278.0820724 376.32913208 279.83467102 C376.33520477 280.63493713 376.34127747 281.43520325 376.34753418 282.25971985 C376.26775887 288.76476375 375.10564242 295.04010268 371.31741333 300.45185852 C370.75667114 300.97006165 370.19592896 301.48826477 369.61819458 302.02217102 C369.06518677 302.5558429 368.51217896 303.08951477 367.94241333 303.63935852 C362.96955749 307.36658639 359.01871348 308.3865954 352.95169067 308.56147766 C345.10754046 308.62050844 345.10754046 308.62050844 338.67288208 312.40107727 C337.26072207 315.20514825 337.26072207 315.20514825 336.14163208 318.19795227 C331.98421976 328.32326293 321.45019988 333.163916 311.93069458 337.14717102 C308.76596172 338.12180973 305.90214823 338.27510454 302.59661007 338.2813921 C300.96461018 338.28807886 300.96461018 338.28807886 299.2996406 338.29490072 C298.10481941 338.29471635 296.90999822 338.29453199 295.67897034 338.29434204 C294.40924553 338.29801873 293.13952071 338.30169542 291.83131939 338.30548352 C288.30430093 338.31549458 284.77729948 338.31921888 281.25026882 338.32187283 C277.44708654 338.32577858 273.64391771 338.33535678 269.84074402 338.34408569 C260.65429471 338.36384324 251.46784431 338.37391576 242.28137907 338.38281348 C237.95382639 338.38719785 233.62627494 338.39256431 229.29872322 338.39780235 C214.91010384 338.4148145 200.52148522 338.429308 186.13285732 338.43655109 C182.39937273 338.43846095 178.66588814 338.44038129 174.93240356 338.44233704 C174.00447918 338.44282078 173.07655479 338.44330452 172.12051148 338.44380292 C157.09348484 338.45210071 142.06653787 338.47743346 127.03954601 338.50991771 C111.6067853 338.54300673 96.17406506 338.56100155 80.74126869 338.56419533 C72.07832624 338.56635881 63.41549994 338.57508352 54.75259209 338.60065651 C47.37375009 338.62238875 39.99505246 338.63040157 32.61618208 338.62068973 C28.85375858 338.6161522 25.09163279 338.61799893 21.32925034 338.63745117 C17.24306012 338.65839434 13.15752695 338.64807454 9.07130432 338.63491821 C7.30249512 338.65137208 7.30249512 338.65137208 5.4979524 338.66815835 C-7.9868557 338.56356061 -18.39337938 333.52628343 -28.25680542 324.52217102 C-37.69210028 314.69138476 -40.37796429 302.46952896 -40.33673096 289.32608032 C-40.34126207 288.25852656 -40.34579318 287.1909728 -40.3504616 286.09106892 C-40.36308882 282.52549669 -40.36148629 278.96007754 -40.35983276 275.39448547 C-40.36581909 272.83314824 -40.37262488 270.2718128 -40.38018799 267.71047974 C-40.39601241 261.48144745 -40.40229598 255.25247093 -40.40341274 249.02342043 C-40.40436498 243.95649752 -40.408484 238.88958705 -40.414814 233.82266808 C-40.4324178 219.43734813 -40.44165435 205.05205796 -40.44015305 190.66672716 C-40.44007314 189.89207295 -40.43999322 189.11741874 -40.43991089 188.31929016 C-40.43982913 187.54368314 -40.43974737 186.76807612 -40.43966313 185.96896585 C-40.43885072 173.40727778 -40.45797916 160.84570976 -40.48618762 148.2840564 C-40.51496478 135.36656008 -40.52872523 122.4491222 -40.52700007 109.53159302 C-40.52633778 102.28716756 -40.531759 95.04286792 -40.55335617 87.79847145 C-40.57354919 80.98169638 -40.57284502 74.16519041 -40.55832291 67.34840202 C-40.55623687 64.85277544 -40.56092333 62.35713214 -40.57304382 59.86153412 C-40.70356885 31.11441291 -40.70356885 31.11441291 -32.44430542 18.83467102 C-31.85391479 17.93103821 -31.26352417 17.0274054 -30.65524292 16.09638977 C-30.13188354 15.45314758 -29.60852417 14.8099054 -29.06930542 14.14717102 C-28.40930542 14.14717102 -27.74930542 14.14717102 -27.06930542 14.14717102 C-27.06930542 13.48717102 -27.06930542 12.82717102 -27.06930542 12.14717102 C-19.56660969 5.78789239 -10.08604141 0.06215745 0 0 Z " fill="#5289E6" transform="translate(98.06930541992188,80.85282897949219)"/>
<path d="M0 0 C1.20215904 -0.01073296 1.20215904 -0.01073296 2.42860413 -0.02168274 C3.29925003 -0.02437164 4.16989594 -0.02706055 5.06692505 -0.02983093 C5.9911174 -0.03640213 6.91530975 -0.04297333 7.86750793 -0.04974365 C10.92763354 -0.06945787 13.98770994 -0.08113941 17.04788208 -0.09111023 C18.09689823 -0.09518576 19.14591438 -0.09926128 20.2267189 -0.10346031 C25.78657076 -0.12431997 31.346398 -0.13861826 36.90628052 -0.147995 C42.61983628 -0.15901741 48.33299809 -0.19336944 54.04641533 -0.23316669 C58.46312121 -0.25945844 62.87973537 -0.26769827 67.2965126 -0.27127647 C69.40061202 -0.27611548 71.5047081 -0.2876517 73.60873032 -0.30631447 C93.74869287 -0.47375338 110.32392151 2.35033511 125.52444458 16.73310852 C131.16573579 22.39271561 136.31938806 28.17546791 140.93069458 34.70967102 C148.187462 44.84906739 156.23340471 52.97837675 168.93069458 55.14717102 C170.54282746 55.23428729 172.15788633 55.275995 173.77236938 55.2784729 C174.71966919 55.28248108 175.66696899 55.28648926 176.64297485 55.2906189 C177.67055908 55.29009018 178.69814331 55.28956146 179.75686646 55.28901672 C180.84862183 55.29249115 181.9403772 55.29596558 183.06521606 55.29954529 C185.4349161 55.30689215 187.80462297 55.31224323 190.17433167 55.31583595 C193.93371104 55.32301773 197.69296112 55.33869901 201.45230103 55.35717773 C212.14104837 55.40955451 222.82971365 55.45800931 233.51858521 55.47309875 C240.06026689 55.48242817 246.60167909 55.51265143 253.14323425 55.55441856 C255.62769608 55.56667727 258.11220389 55.57185927 260.59669495 55.56962013 C278.7658364 55.55727869 293.4003403 55.95755561 307.61819458 68.52217102 C315.93069458 77.95798183 315.93069458 77.95798183 315.93069458 82.14717102 C315.31933749 82.00616659 314.7079804 81.86516216 314.07809734 81.71988487 C308.11048928 80.42311912 302.50102009 79.84990056 296.40457153 79.85664368 C295.51037003 79.84992645 294.61616852 79.84320923 293.69487 79.83628845 C290.76951374 79.81745528 287.84438876 79.81339153 284.91897583 79.81123352 C282.86169851 79.80479473 280.80442208 79.79806559 278.74714661 79.7910614 C274.44445679 79.77912477 270.14184704 79.77537678 265.83914185 79.77656555 C260.36347243 79.77676837 254.88832413 79.7494876 249.4127779 79.71502113 C245.16502083 79.69262902 240.91738666 79.68873179 236.66957664 79.689785 C234.65283605 79.68744671 232.63609114 79.6787249 230.61940956 79.66312027 C213.8507692 79.54552417 200.58117266 81.32158181 185.93069458 90.14717102 C184.60418613 90.82731627 183.2731577 91.49908538 181.93069458 92.14717102 C181.93069458 92.80717102 181.93069458 93.46717102 181.93069458 94.14717102 C180.30606211 95.49527031 178.68125188 96.8431558 177.05569458 98.19013977 C172.0463665 102.80350994 168.04004815 108.4448105 163.86038208 113.79951477 C156.27915679 123.44699558 148.65200116 132.99509494 135.93069458 135.14717102 C134.32525262 135.23232742 132.71690597 135.27182569 131.10920715 135.27174377 C129.69476067 135.2755883 129.69476067 135.2755883 128.2517395 135.2795105 C127.22886841 135.27741074 126.20599731 135.27531097 125.15213013 135.27314758 C124.06519363 135.27501572 122.97825714 135.27688385 121.85838318 135.27880859 C119.49850895 135.28280972 117.13863087 135.28488717 114.77875328 135.28527069 C109.74354419 135.28869683 104.70846298 135.31007975 99.67329884 135.33050156 C90.30521193 135.36843043 80.93728974 135.40034987 71.56912231 135.3976593 C65.04681387 135.39686778 58.52497283 135.42042756 52.00278664 135.45954132 C49.52917398 135.46993949 47.05550697 135.47157148 44.58188438 135.46389008 C19.50937738 135.29751611 19.50937738 135.29751611 -2.02633667 147.04951477 C-10.21425809 155.45661573 -16.17317571 165.42125249 -16.20733643 177.37762451 C-16.21278976 178.41076782 -16.2182431 179.44391113 -16.22386169 180.50836182 C-16.22542519 182.1924691 -16.22542519 182.1924691 -16.22702026 183.91059875 C-16.23210098 185.10138031 -16.2371817 186.29216187 -16.24241638 187.51902771 C-16.25590049 190.77729425 -16.26529752 194.03554753 -16.27383375 197.29382968 C-16.28457952 200.70900556 -16.30315359 204.12413485 -16.32165527 207.53927612 C-16.38347092 219.16545372 -16.43759717 230.79162538 -16.47067261 242.41792297 C-16.48903289 248.84367464 -16.51798239 255.26928816 -16.55867732 261.69493824 C-16.57971602 265.09216673 -16.59520018 268.48922142 -16.59748459 271.88651848 C-16.60238499 275.67600177 -16.6255208 279.46496988 -16.65280151 283.25434875 C-16.64979538 284.37506271 -16.64678925 285.49577667 -16.64369202 286.65045166 C-16.70318688 292.20661823 -16.84377861 296.393279 -20.06930542 301.14717102 C-23.40577883 304.00700537 -26.60070596 304.81980783 -31.01752299 304.61224073 C-34.99131088 303.71151736 -37.65519032 301.36262418 -40.06930542 298.14717102 C-41.07134837 294.64022548 -41.00304437 291.27104122 -40.93800354 287.64251709 C-40.94680678 286.58483928 -40.95561001 285.52716148 -40.96468002 284.43743283 C-40.98557955 280.89257342 -40.95643734 277.34990662 -40.92745972 273.80513 C-40.93203366 271.26378693 -40.93963087 268.72244775 -40.95002747 266.18112183 C-40.96715866 259.99297437 -40.95172917 253.80564041 -40.92106392 247.61756801 C-40.88662091 240.40286096 -40.88845718 233.18829877 -40.89154241 225.97352684 C-40.89573314 213.09043702 -40.86575636 200.20765001 -40.81710815 187.32466125 C-40.76999836 174.84379552 -40.74867011 162.36323261 -40.75558472 149.88227844 C-40.76426935 134.10390931 -40.74997609 118.32572489 -40.71683234 102.54738859 C-40.70695565 97.52798695 -40.70518518 92.50862004 -40.70618248 87.48921013 C-40.70702343 80.71670998 -40.6856122 73.94460587 -40.64978981 67.1721859 C-40.63974718 64.69270887 -40.63637732 62.21319401 -40.64033508 59.7336998 C-40.67607977 31.07354257 -40.67607977 31.07354257 -32.44430542 18.83467102 C-31.85391479 17.93103821 -31.26352417 17.0274054 -30.65524292 16.09638977 C-30.13188354 15.45314758 -29.60852417 14.8099054 -29.06930542 14.14717102 C-28.40930542 14.14717102 -27.74930542 14.14717102 -27.06930542 14.14717102 C-27.06930542 13.48717102 -27.06930542 12.82717102 -27.06930542 12.14717102 C-19.56660969 5.78789239 -10.08604141 0.06215745 0 0 Z " fill="#1F4896" transform="translate(98.06930541992188,80.85282897949219)"/>
<path d="M0 0 C1.23968788 -0.01414003 2.47937576 -0.02828007 3.75662994 -0.04284859 C4.78928356 -0.0602909 5.82193718 -0.07773321 6.88588333 -0.09570408 C13.30903673 0.25930722 18.6970645 2.58396188 23.1324234 7.24705315 C28.03454322 13.96054876 29.15510322 21.23558265 29.0933609 29.37205315 C29.09623108 30.22581535 29.09910126 31.07957756 29.10205841 31.95921135 C29.10408519 33.75080345 29.09865322 35.54241839 29.08603668 37.33396721 C29.06996272 40.05290221 29.08593254 42.77035105 29.10507965 45.48924065 C29.10309697 47.24184804 29.09925279 48.99445453 29.0933609 50.74705315 C29.09943359 51.54731926 29.10550629 52.34758537 29.111763 53.17210197 C29.03198769 59.67714588 27.86987124 65.9524848 24.08164215 71.36424065 C23.24052887 72.14154533 23.24052887 72.14154533 22.3824234 72.93455315 C21.82941559 73.46822502 21.27640778 74.0018969 20.70664215 74.55174065 C15.45655362 78.48675846 10.68615904 79.55502397 4.23571014 79.73974419 C3.40839404 79.7728581 2.58107793 79.80597201 1.72869164 79.84008938 C-8.49660362 80.20858487 -18.72728202 80.19502023 -28.95766449 80.17649651 C-31.1609624 80.17617362 -33.36426039 80.1762149 -35.56755829 80.17658806 C-42.72096853 80.17560696 -49.87433777 80.16336962 -57.02773285 80.1493969 C-58.2498512 80.1471836 -59.47196954 80.14497031 -60.73112178 80.14268994 C-72.2729385 80.12160606 -83.81473968 80.0966293 -95.35652256 80.06140614 C-109.39387792 80.01876554 -123.43092514 79.99177152 -137.46834011 79.99480002 C-148.51383291 79.99675569 -159.5590992 79.97565169 -170.60451311 79.93378741 C-176.78959295 79.91094749 -182.97431419 79.89805798 -189.15943336 79.90969467 C-194.96700396 79.92013276 -200.77380939 79.90227531 -206.58124924 79.86289406 C-208.70723192 79.85335243 -210.83328887 79.85394986 -212.95926094 79.86561966 C-233.93538107 79.96949624 -233.93538107 79.96949624 -241.3050766 73.05955315 C-247.02775158 66.33541004 -247.62286056 59.00166133 -247.67617035 50.5400219 C-247.68519882 49.64140938 -247.69422729 48.74279686 -247.70352936 47.81695366 C-247.71797514 45.9234885 -247.72690441 44.02997407 -247.73061371 42.13645744 C-247.74250001 39.26555094 -247.79173215 36.39680338 -247.84218597 33.52635002 C-248.00881912 14.92614009 -248.00881912 14.92614009 -242.3050766 8.05955315 C-236.06587079 2.39914719 -231.88736291 0.91074192 -223.50301361 0.90133476 C-222.11869231 0.8939278 -222.11869231 0.8939278 -220.70640492 0.8863712 C-217.5944406 0.87093698 -214.48249701 0.86261918 -211.37050629 0.85423088 C-209.14664781 0.84465609 -206.92279117 0.83464625 -204.69893646 0.8242321 C-198.64046859 0.79711111 -192.58199289 0.77613477 -186.52349758 0.75623012 C-180.18254868 0.73437867 -173.84162383 0.70697774 -167.50069427 0.68017387 C-156.83751694 0.63586022 -146.17433186 0.59505294 -135.51113129 0.5568676 C-124.56190203 0.51764915 -113.61268472 0.4762275 -102.66347504 0.4318676 C-101.65458419 0.42778119 -101.65458419 0.42778119 -100.6253117 0.42361223 C-97.92105683 0.4126497 -95.21680202 0.40167071 -92.5125473 0.39067009 C-71.71222113 0.30607144 -50.91188538 0.2238228 -30.11152649 0.14766121 C-27.93722757 0.13968214 -25.76292895 0.13162156 -23.58863068 0.12347031 C-22.56737595 0.1196541 -21.54612122 0.1158379 -20.49391937 0.11190605 C-19.01562959 0.10632154 -19.01562959 0.10632154 -17.50747538 0.1006242 C-15.62551799 0.09418884 -13.74355656 0.08882567 -11.86159277 0.08466423 C-7.90718803 0.075879 -3.95399615 0.05939207 0 0 Z " fill="#204896" transform="translate(445.3050765991211,309.9404468536377)"/>
<path d="M0 0 C4.9299259 2.81999877 8.18110201 7.48720401 10.6875 12.5 C11.40641573 19.75077865 11.59416971 25.92241377 7.11328125 31.91796875 C3.05429865 36.42177136 -1.08989328 39.0777274 -7.14453125 39.87109375 C-14.24767843 40.02935522 -18.90793416 39.264895 -24.3125 34.5 C-29.77951668 28.7452456 -30.83979951 23.25604989 -30.6875 15.5078125 C-30.00860119 10.06247826 -27.60642021 6.50780762 -23.52734375 2.9375 C-16.64009045 -2.2096617 -8.02944078 -3.51869316 0 0 Z " fill="#F3F8FB" transform="translate(361.3125,334.5)"/>
<path d="M0 0 C3.3 -0.0825 6.6 -0.165 10 -0.25 C11.02351563 -0.28641602 12.04703125 -0.32283203 13.1015625 -0.36035156 C19.28736007 -0.43456198 23.88483946 0.39631288 29 4 C31.05859375 6.03515625 31.05859375 6.03515625 32.4375 8.0625 C32.91058594 8.73410156 33.38367188 9.40570313 33.87109375 10.09765625 C36.66409597 14.80420325 36.54364085 19.69753204 36 25 C34.13245597 31.76836021 29.7963067 35.37417178 24 39 C21.49502996 40.25248502 19.79146726 40.11374406 16.9921875 40.09765625 C16.1038623 40.09515869 15.21553711 40.09266113 14.30029297 40.09008789 C13.16994629 40.08098389 12.03959961 40.07187988 10.875 40.0625 C5.491875 40.0315625 5.491875 40.0315625 0 40 C0 26.8 0 13.6 0 0 Z " fill="#F4F8FA" transform="translate(292,333)"/>
<path d="M0 0 C3.93971874 2.92953445 6.08952056 5.2755908 7.1875 10.125 C7.27 11.011875 7.3525 11.89875 7.4375 12.8125 C2.0589838 13.16518959 2.0589838 13.16518959 -0.5625 12.8125 C-1.036875 12.173125 -1.51125 11.53375 -2 10.875 C-3.35898626 8.63520611 -3.35898626 8.63520611 -5.62890625 8.2890625 C-9.3688697 7.84482928 -11.94442422 7.60647474 -15.5625 8.8125 C-15.5625 10.1325 -15.5625 11.4525 -15.5625 12.8125 C-12.435901 14.599128 -9.80747903 15.13982922 -6.25 15.5625 C-0.64260029 16.49331334 2.73517351 18.5280467 6.4375 22.8125 C8.05484652 26.04719305 8.0159335 29.31590198 7.4375 32.8125 C5.16538099 37.13046892 2.02534523 39.35635782 -2.5625 40.8125 C-8.97426565 41.47697639 -15.1655795 41.72526736 -20.5625 37.8125 C-24.39215008 34.08635398 -25.14899697 31.08466362 -25.5625 25.8125 C-22.5925 25.8125 -19.6225 25.8125 -16.5625 25.8125 C-15.9025 27.4625 -15.2425 29.1125 -14.5625 30.8125 C-10.2725 30.8125 -5.9825 30.8125 -1.5625 30.8125 C-1.8925 29.4925 -2.2225 28.1725 -2.5625 26.8125 C-4.60498905 25.77155488 -4.60498905 25.77155488 -7.125 25.25 C-8.02734375 25.00765625 -8.9296875 24.7653125 -9.859375 24.515625 C-10.75140625 24.28359375 -11.6434375 24.0515625 -12.5625 23.8125 C-18.66485165 22.08700746 -22.16692455 20.3303101 -25.5625 14.8125 C-26.10013624 10.98184176 -25.92782395 8.68521833 -24.4375 5.125 C-18.13020743 -2.65399417 -9.15341829 -3.05113943 0 0 Z " fill="#F4F9FB" transform="translate(440.5625,332.1875)"/>
<path d="M0 0 C1.92167077 0.9557336 3.78945259 2.01833776 5.64453125 3.09765625 C5.64453125 6.09765625 5.64453125 6.09765625 3.95703125 8.34765625 C1.64453125 10.09765625 1.64453125 10.09765625 -0.66796875 9.84765625 C-1.55484375 9.60015625 -2.44171875 9.35265625 -3.35546875 9.09765625 C-7.81895531 8.8585409 -11.45389507 8.75671204 -15.35546875 11.09765625 C-17.81645335 15.0821075 -17.95492031 19.54182441 -17.35546875 24.09765625 C-16.12014417 26.93890278 -15.09992485 28.51863484 -12.66796875 30.41015625 C-8.60440474 31.61824285 -4.16411397 31.76943876 -0.16796875 30.28515625 C0.43015625 30.22328125 1.02828125 30.16140625 1.64453125 30.09765625 C4.39453125 32.41015625 4.39453125 32.41015625 6.64453125 35.09765625 C6.64453125 35.75765625 6.64453125 36.41765625 6.64453125 37.09765625 C0.65275512 40.27060626 -4.53114582 42.27551982 -11.35546875 41.09765625 C-17.57410021 39.17284175 -21.776536 35.46605537 -25.35546875 30.09765625 C-27.93237004 24.70958992 -28.47412681 18.64431078 -26.66796875 12.91796875 C-23.92121537 6.85222171 -20.09542086 3.86340316 -14.54296875 0.28515625 C-9.57217642 -1.56670756 -5.01707851 -1.9219654 0 0 Z " fill="#F1F7FB" transform="translate(402.35546875,331.90234375)"/>
<path d="M0 0 C1.05859375 1.6484375 1.05859375 1.6484375 0.74609375 4.3359375 C0.51921875 5.0990625 0.29234375 5.8621875 0.05859375 6.6484375 C-0.60140625 6.6484375 -1.26140625 6.6484375 -1.94140625 6.6484375 C-1.75578125 7.6178125 -1.57015625 8.5871875 -1.37890625 9.5859375 C-1.23453125 10.5965625 -1.09015625 11.6071875 -0.94140625 12.6484375 C-1.27140625 12.9784375 -1.60140625 13.3084375 -1.94140625 13.6484375 C-1.94140625 14.6384375 -1.94140625 15.6284375 -1.94140625 16.6484375 C-2.60140625 16.6484375 -3.26140625 16.6484375 -3.94140625 16.6484375 C-3.94140625 17.3084375 -3.94140625 17.9684375 -3.94140625 18.6484375 C-2.95140625 18.9784375 -1.96140625 19.3084375 -0.94140625 19.6484375 C-6.56640625 20.7734375 -6.56640625 20.7734375 -9.94140625 19.6484375 C-10.60140625 19.9784375 -11.26140625 20.3084375 -11.94140625 20.6484375 C-16.5342698 21.03117613 -19.10728965 20.9972499 -23.37890625 19.2109375 C-26.47986414 16.10997961 -26.98366905 14.26435067 -27.16796875 9.96875 C-26.76540582 5.84595037 -25.58608386 3.88816757 -22.94140625 0.6484375 C-17.13516547 -2.25468289 -5.44006036 -3.78724524 0 0 Z " fill="#1E4896" transform="translate(411.94140625,343.3515625)"/>
<path d="M0 0 C3.13111192 1.44031148 5.15189933 3.08103726 7 6 C8.00993612 10.62211642 7.55705037 14.54547958 5.875 18.9375 C2.73653297 22.38981374 -0.41556162 23.76893607 -5 24.4375 C-8.85762893 23.87492911 -10.97048355 22.40984263 -14 20 C-16.82792793 15.7581081 -16.78122286 11.98126257 -16 7 C-12.37579594 0.26356123 -7.18486933 -1.1818759 0 0 Z " fill="#214895" transform="translate(356,342)"/>
<path d="M0 0 C3.984375 3.671875 3.984375 3.671875 4.125 6.625 C3.04087641 9.87737077 1.71075869 12.2994798 -0.0703125 15.2109375 C-0.61703613 16.1086084 -1.16375977 17.0062793 -1.72705078 17.93115234 C-2.14712402 18.61387207 -2.56719727 19.2965918 -3 20 C-1.98574951 19.97381592 -0.97149902 19.94763184 0.07348633 19.9206543 C3.83595729 19.83016481 7.59833217 19.77275688 11.36157227 19.7253418 C12.9903175 19.70019432 14.61894985 19.66607122 16.24731445 19.62280273 C18.58833634 19.5621545 20.92786731 19.53379524 23.26953125 19.51171875 C23.99775589 19.48591232 24.72598053 19.4601059 25.47627258 19.43351746 C27.53833008 19.43237305 27.53833008 19.43237305 31 20 C32.9916237 22.41579076 34 23.84711434 34 27 C18.16 27 2.32 27 -14 27 C-13.0665309 23.26612361 -11.94843082 20.88075289 -10.05859375 17.578125 C-9.47529297 16.55332031 -8.89199219 15.52851563 -8.29101562 14.47265625 C-7.37352539 12.87744141 -7.37352539 12.87744141 -6.4375 11.25 C-5.82197266 10.17105469 -5.20644531 9.09210938 -4.57226562 7.98046875 C-3.05244312 5.31783398 -1.52821656 2.65782304 0 0 Z " fill="#EDF3F9" transform="translate(245,348)"/>
<path d="M0 0 C2.73869792 2.44678145 4.31574418 5.09512396 6.07421875 8.3046875 C6.65606934 9.357771 7.23791992 10.41085449 7.83740234 11.49584961 C8.75320068 13.16852905 8.75320068 13.16852905 9.6875 14.875 C14.17623963 23.00148662 18.71907596 31.03195281 23.7421875 38.83984375 C25 41 25 41 25 43 C14.77 43 4.54 43 -6 43 C-4 38 -4 38 -3 36 C2.28 36 7.56 36 13 36 C11.04394233 32.49390707 9.08714162 28.98824527 7.12841797 25.48364258 C6.46261118 24.29183222 5.79724231 23.0997771 5.13232422 21.9074707 C4.17531258 20.19157316 3.21658348 18.47663386 2.2578125 16.76171875 C1.6817627 15.73006592 1.10571289 14.69841309 0.51220703 13.63549805 C-0.58938152 11.7156323 -1.77219623 9.84170566 -3 8 C-2.65358161 4.53581611 -1.96713413 2.95070119 0 0 Z " fill="#EAF0F8" transform="translate(250,324)"/>
<path d="M0 0 C0.66 0 1.32 0 2 0 C3.51220703 2.17138672 3.51220703 2.17138672 5.2578125 5.1796875 C5.88300781 6.25347656 6.50820312 7.32726562 7.15234375 8.43359375 C8.12880859 10.13708984 8.12880859 10.13708984 9.125 11.875 C9.78371094 13.00292969 10.44242188 14.13085938 11.12109375 15.29296875 C16 23.72751682 16 23.72751682 16 26 C12.9375 26.6875 12.9375 26.6875 9 26 C6.03890231 22.51870947 2 17.74162575 2 13 C-0.94011659 15.59375747 -2.64032023 18.59201407 -4.57421875 21.98046875 C-4.90291458 22.55332108 -5.23161041 23.1261734 -5.57026672 23.71638489 C-6.6138625 25.53754904 -7.65075263 27.36243022 -8.6875 29.1875 C-9.39604448 30.42668392 -10.10502413 31.66561912 -10.81445312 32.90429688 C-12.54801825 35.93333358 -14.27559206 38.96573875 -16 42 C-18.64 42 -21.28 42 -24 42 C-22.37450009 37.44860026 -20.03892148 33.49806231 -17.5625 29.375 C-16.66854701 27.87282635 -15.77534796 26.37020383 -14.8828125 24.8671875 C-14.41520508 24.08053711 -13.94759766 23.29388672 -13.46582031 22.48339844 C-10.4309754 17.34175246 -7.46416186 12.16024504 -4.49243164 6.98193359 C-4.05020264 6.21445801 -3.60797363 5.44698242 -3.15234375 4.65625 C-2.76038818 3.97369141 -2.36843262 3.29113281 -1.96459961 2.58789062 C-1 1 -1 1 0 0 Z " fill="#ECF2F9" transform="translate(245,333)"/>
<path d="M0 0 C0.66 0 1.32 0 2 0 C2 0.99 2 1.98 2 3 C1.34 3 0.68 3 0 3 C-0.12375 3.639375 -0.2475 4.27875 -0.375 4.9375 C-0.58125 5.618125 -0.7875 6.29875 -1 7 C-1.99 7.495 -1.99 7.495 -3 8 C-7.63086907 17.26173815 -9.45069617 26.71022877 -9.39872742 37.00358582 C-9.40537424 38.05429034 -9.41202107 39.10499487 -9.41886932 40.18753892 C-9.43739159 43.67745437 -9.43490126 47.16702371 -9.43237305 50.65698242 C-9.44139676 53.17089315 -9.45172547 55.68479948 -9.46325684 58.19869995 C-9.48509081 63.5951504 -9.49791416 68.99150036 -9.50238609 74.38799095 C-9.5088674 82.19020706 -9.53183939 89.99230749 -9.55872939 97.79447678 C-9.60192228 110.4554975 -9.63193175 123.11651332 -9.65356445 135.77758789 C-9.67459668 148.07058108 -9.70189129 160.3635343 -9.73754883 172.65649414 C-9.73974765 173.41528805 -9.74194648 174.17408197 -9.74421193 174.95586964 C-9.75528215 178.76283113 -9.76647485 182.56979225 -9.77772844 186.37675321 C-9.87080729 217.91780215 -9.94223329 249.45886567 -10 281 C-10.33 281 -10.66 281 -11 281 C-11.09135291 248.4810226 -11.16209151 215.96208235 -11.20426132 183.44300582 C-11.20926383 179.59929208 -11.21444115 175.75557859 -11.21972656 171.91186523 C-11.2207758 171.14668727 -11.22182505 170.38150931 -11.22290608 169.59314414 C-11.24028661 157.22172192 -11.27181126 144.85037445 -11.30861118 132.47899649 C-11.34608622 119.77420896 -11.36824969 107.06946044 -11.37635398 94.36461991 C-11.38182819 86.5321164 -11.39908509 78.6998242 -11.43166587 70.86738577 C-11.45541327 64.85007159 -11.45780336 58.83293719 -11.45243073 52.81557083 C-11.45352746 50.35541805 -11.46143448 47.89525696 -11.4768219 45.43515205 C-11.64598357 16.98466721 -11.64598357 16.98466721 -3.375 4.6875 C-2.78460938 3.78386719 -2.19421875 2.88023438 -1.5859375 1.94921875 C-1.06257813 1.30597656 -0.53921875 0.66273437 0 0 Z " fill="#23417D" transform="translate(69,95)"/>
<path d="M0 0 C9.33333333 0 9.33333333 0 14 3 C16.8199641 7.22994616 16.79231188 11.03220448 16 16 C13.47323961 19.34625024 11.96066458 20.67977847 8 22 C5.36 22 2.72 22 0 22 C0 14.74 0 7.48 0 0 Z " fill="#254B93" transform="translate(302,342)"/>
<path d="M0 0 C73.59 0 147.18 0 223 0 C221.53867783 4.38396651 220.416361 7.26562391 218 11 C217 8 217 8 217.9375 5.8125 C218.288125 5.214375 218.63875 4.61625 219 4 C218.01 3.67 217.02 3.34 216 3 C216 2.34 216 1.68 216 1 C144.72 1 73.44 1 0 1 C0 0.67 0 0.34 0 0 Z " fill="#4D7FD6" transform="translate(216,389)"/>
<path d="M0 0 C1.2216687 -0.00422974 1.2216687 -0.00422974 2.46801758 -0.00854492 C3.35280289 -0.00652069 4.2375882 -0.00449646 5.14918518 -0.00241089 C6.55715866 -0.00503937 6.55715866 -0.00503937 7.99357605 -0.00772095 C11.09697823 -0.01212278 14.20032343 -0.00920707 17.3037262 -0.00582886 C19.4607952 -0.00650243 21.61786412 -0.00747291 23.77493286 -0.00872803 C28.29666364 -0.01020279 32.81837467 -0.00805775 37.34010315 -0.00338745 C43.13509667 0.00230628 48.93004385 -0.00096833 54.72503567 -0.00695992 C59.17997588 -0.0105744 63.63490511 -0.00942278 68.08984566 -0.00683212 C70.22647673 -0.00616514 72.36310879 -0.00698331 74.49973869 -0.00931168 C77.48708101 -0.01185234 80.47434843 -0.00797741 83.46168518 -0.00241089 C84.7858268 -0.00544724 84.7858268 -0.00544724 86.13671875 -0.00854492 C90.18038266 0.00540699 93.92498302 0.11197421 97.87013245 1.12698364 C97.87013245 1.45698364 97.87013245 1.78698364 97.87013245 2.12698364 C95.96119202 2.135783 95.96119202 2.135783 94.01368713 2.14476013 C82.00768085 2.20202687 70.00185501 2.27480945 57.99603271 2.36269855 C51.82403372 2.40738454 45.65210047 2.44664482 39.47999573 2.47341919 C33.52115946 2.49946946 27.56257641 2.53988471 21.60389709 2.59016991 C19.33301447 2.60682684 17.06208807 2.6183484 14.79115295 2.62459755 C11.60497121 2.63425112 8.41943561 2.66232657 5.2334137 2.6946106 C4.29904984 2.69317551 3.36468597 2.69174042 2.40200806 2.69026184 C-1.9494189 2.75242615 -5.47196913 3.07473748 -9.52757263 4.71650696 C-13.15004112 6.13488259 -13.71262342 6.25939544 -17.12986755 5.12698364 C-15.7150862 4.47703067 -14.29795268 3.83219642 -12.87986755 3.18948364 C-12.0909613 2.82983521 -11.30205505 2.47018677 -10.48924255 2.09963989 C-6.9430541 0.63771783 -3.83213365 0.002049 0 0 Z " fill="#284782" transform="translate(98.12986755371094,80.87301635742188)"/>
<path d="M0 0 C2 2 2 2 2.32421875 4.1015625 C3.31435112 8.34825742 5.55359558 11.67802339 7.8125 15.375 C8.69438375 16.8409213 9.57589834 18.30706476 10.45703125 19.7734375 C10.88322754 20.48081055 11.30942383 21.18818359 11.74853516 21.91699219 C17 30.65782286 17 30.65782286 17 33 C11.72 33 6.44 33 1 33 C0.01 35.475 0.01 35.475 -1 38 C-1.33 38.66 -1.66 39.32 -2 40 C8.23 40 18.46 40 29 40 C29 40.33 29 40.66 29 41 C18.11 41 7.22 41 -4 41 C-2.65559923 37.63899808 -1.6932213 35.37879362 0.1875 32.5 C2.25973223 29.23828474 2.25973223 29.23828474 1.8125 26.1875 C1.0441688 23.99850275 1.0441688 23.99850275 0 22 C-4.30218414 28.96648092 -8.58826502 35.9389261 -12.7734375 42.9765625 C-13.80507198 44.67843084 -14.89607337 46.34411005 -16 48 C-16.33 47.34 -16.66 46.68 -17 46 C-15.78417969 43.40209961 -15.78417969 43.40209961 -13.921875 40.15234375 C-13.4310141 39.29450035 -13.4310141 39.29450035 -12.93023682 38.41932678 C-12.23468895 37.20911851 -11.53499983 36.00128249 -10.83154297 34.7956543 C-9.75630947 32.94834004 -8.69973782 31.09123157 -7.64453125 29.23242188 C-6.96725006 28.05925765 -6.28889935 26.8867101 -5.609375 25.71484375 C-4.99030273 24.64355225 -4.37123047 23.57226074 -3.73339844 22.46850586 C-2 20 -2 20 1 19 C1.42410156 19.85464844 1.84820312 20.70929688 2.28515625 21.58984375 C2.87167969 22.69457031 3.45820313 23.79929687 4.0625 24.9375 C4.91521484 26.59072266 4.91521484 26.59072266 5.78515625 28.27734375 C7.83520125 31.36386926 7.83520125 31.36386926 11.74609375 31.87890625 C12.81988281 31.91886719 13.89367187 31.95882813 15 32 C14.57589844 31.28344238 14.15179688 30.56688477 13.71484375 29.82861328 C11.80539326 26.59671096 9.90262197 23.36092656 8 20.125 C7.33226562 18.99707031 6.66453125 17.86914062 5.9765625 16.70703125 C5.34492188 15.63066406 4.71328125 14.55429687 4.0625 13.4453125 C3.47597656 12.45031738 2.88945312 11.45532227 2.28515625 10.43017578 C1 8 1 8 1 6 C0.34 5.67 -0.32 5.34 -1 5 C-0.67 3.35 -0.34 1.7 0 0 Z " fill="#627191" transform="translate(246,327)"/>
<path d="M0 0 C1.16015625 0.10054688 1.16015625 0.10054688 2.34375 0.203125 C4.89940261 0.85129776 5.90109613 1.67962448 7.5 3.75 C7.5 4.41 7.5 5.07 7.5 5.75 C10.14 5.75 12.78 5.75 15.5 5.75 C15.5 6.08 15.5 6.41 15.5 6.75 C11.87 7.08 8.24 7.41 4.5 7.75 C4.17 6.925 3.84 6.1 3.5 5.25 C1.81717322 2.57688225 1.81717322 2.57688225 -0.48046875 2.41796875 C-2.48995058 2.43575178 -4.4971564 2.58583249 -6.5 2.75 C-6.5 3.74 -6.5 4.73 -6.5 5.75 C-4.52 5.75 -2.54 5.75 -0.5 5.75 C-0.17 6.74 0.16 7.73 0.5 8.75 C-3.23487777 8.2520163 -5.31237635 7.87508244 -8.5 5.75 C-8.17 4.1 -7.84 2.45 -7.5 0.75 C-4.51786685 -0.24404438 -3.05541462 -0.30554146 0 0 Z " fill="#455E95" transform="translate(432.5,339.25)"/>
<path d="M0 0 C3.36016893 1.12005631 4.69064913 2.37211797 7 5 C7 5.66 7 6.32 7 7 C6.34 7 5.68 7 5 7 C5.66 10.63 6.32 14.26 7 18 C7.66 18 8.32 18 9 18 C9 18.66 9 19.32 9 20 C9.99 20 10.98 20 12 20 C12.33 21.98 12.66 23.96 13 26 C5.73866016 20.79747807 2.3572126 12.87420741 0.625 4.25 C0.39825268 2.83616377 0.18224554 1.42025835 0 0 Z " fill="#5387E2" transform="translate(58,379)"/>
<path d="M0 0 C1 3 1 3 0 6 C-0.62140961 12.16629539 0.24577426 16.49154852 3 22 C3.33 22.99 3.66 23.98 4 25 C3.34 25 2.68 25 2 25 C-1.42752944 20.28714702 -4.09726791 16.2875461 -4.5625 10.4375 C-4.79042405 7.67915381 -5.11350888 5.65947335 -6 3 C-4.68 3.33 -3.36 3.66 -2 4 C-1.34 2.68 -0.68 1.36 0 0 Z " fill="#31508D" transform="translate(376,341)"/>
<path d="M0 0 C0.33 4.62 0.66 9.24 1 14 C-0.65 14.66 -2.3 15.32 -4 16 C-4.33 15.01 -4.66 14.02 -5 13 C-4.67 12.34 -4.34 11.68 -4 11 C-3.72824182 8.40751328 -3.55427432 5.81551489 -3.37890625 3.21484375 C-3.19134766 2.11849609 -3.19134766 2.11849609 -3 1 C-1 0 -1 0 0 0 Z " fill="#2E5088" transform="translate(331,347)"/>
<path d="M0 0 C2.32472205 2.85306797 3.7508258 5.54074837 5 9 C2.69 9 0.38 9 -2 9 C-3.98 5.535 -3.98 5.535 -6 2 C-3.525 2.495 -3.525 2.495 -1 3 C-0.67 2.01 -0.34 1.02 0 0 Z " fill="#E3EDF9" transform="translate(256,350)"/>
<path d="M0 0 C3.86715038 2.12246797 6.74405677 4.52746145 9.8125 7.6875 C10.60269531 8.49574219 11.39289063 9.30398437 12.20703125 10.13671875 C13.09455078 11.05904297 13.09455078 11.05904297 14 12 C11 12 11 12 8 10 C6.68 10 5.36 10 4 10 C3.34 7.36 2.68 4.72 2 2 C1.34 2 0.68 2 0 2 C0 1.34 0 0.68 0 0 Z " fill="#264B92" transform="translate(216,92)"/>
<path d="M0 0 C0.66 0.66 1.32 1.32 2 2 C0.58847656 2.03867187 0.58847656 2.03867187 -0.8515625 2.078125 C-10.28830339 2.29246039 -10.28830339 2.29246039 -18 7 C-19.83300909 9.10575643 -19.83300909 9.10575643 -21 11 C-21 9.35 -21 7.7 -21 6 C-20.01 5.67 -19.02 5.34 -18 5 C-17.67 4.01 -17.34 3.02 -17 2 C-4.59794438 -0.47158404 -4.59794438 -0.47158404 0 0 Z " fill="#334F8A" transform="translate(436,329)"/>
<path d="M0 0 C6.75 0.75 6.75 0.75 9 3 C11.44963177 3.02253443 11.44963177 3.02253443 14.125 2.625 C15.03507812 2.51414062 15.94515625 2.40328125 16.8828125 2.2890625 C17.58148438 2.19367188 18.28015625 2.09828125 19 2 C19 2.99 19 3.98 19 5 C18.01 4.67 17.02 4.34 16 4 C15.01 4.495 15.01 4.495 14 5 C7.77420015 5.51881665 4.83250995 4.98682071 0 1 C0 0.67 0 0.34 0 0 Z " fill="#38548F" transform="translate(386,359)"/>
<path d="M0 0 C1.70840281 1.63412443 2.93453047 2.86906094 4 5 C6.12576782 5.46651207 6.12576782 5.46651207 8.5625 5.625 C9.38878906 5.69976562 10.21507812 5.77453125 11.06640625 5.8515625 C11.70449219 5.90054687 12.34257812 5.94953125 13 6 C13 6.33 13 6.66 13 7 C7.72 7 2.44 7 -3 7 C-1 2 -1 2 0 0 Z " fill="#334F87" transform="translate(250,353)"/>
<path d="M0 0 C5.89034001 3.34316595 5.89034001 3.34316595 8 6 C8.3984375 8.375 8.3984375 8.375 8.375 11 C8.38273437 11.86625 8.39046875 12.7325 8.3984375 13.625 C7.93393358 16.39380767 7.15199754 17.26929299 5 19 C5.09539062 18.40832031 5.19078125 17.81664062 5.2890625 17.20703125 C6.23119514 10.86745797 6.23119514 10.86745797 4 5 C2.69481525 3.96352976 1.36538653 2.95577057 0 2 C0 1.34 0 0.68 0 0 Z " fill="#304C87" transform="translate(355,342)"/>
<path d="M0 0 C3.875 0.875 3.875 0.875 5 2 C5.04063832 3.66617115 5.042721 5.33388095 5 7 C4.34 7 3.68 7 3 7 C2.67 7.99 2.34 8.98 2 10 C0.68 9.67 -0.64 9.34 -2 9 C-1.67 8.01 -1.34 7.02 -1 6 C1.0625 5.3125 1.0625 5.3125 3 5 C2.01 3.35 1.02 1.7 0 0 Z " fill="#2D4D8C" transform="translate(406,364)"/>
<path d="M0 0 C4.51720311 -0.36625971 4.51720311 -0.36625971 6.8125 1.375 C8 3 8 3 8 5 C10.64 5 13.28 5 16 5 C16 5.33 16 5.66 16 6 C10.555 6.495 10.555 6.495 5 7 C4.54625 6.21625 4.0925 5.4325 3.625 4.625 C2.11571258 1.96301969 2.11571258 1.96301969 0 0 Z " fill="#375695" transform="translate(432,340)"/>
<path d="M0 0 C0.64066406 0.15597656 1.28132813 0.31195313 1.94140625 0.47265625 C7.37234363 1.6948195 11.55055361 2.18466226 17 1 C15 4 15 4 13.046875 4.65234375 C8.91588595 5.16520464 6.01896558 5.4756039 2.4375 3.125 C1.633125 2.42375 0.82875 1.7225 0 1 C0 0.67 0 0.34 0 0 Z " fill="#435B96" transform="translate(342,361)"/>
<path d="M0 0 C4.62 0 9.24 0 14 0 C13.67 0.66 13.34 1.32 13 2 C10.6015625 2.59765625 10.6015625 2.59765625 7.625 3.0625 C4.60519514 3.54455328 1.90647913 4.03117362 -1 5 C-0.67 3.35 -0.34 1.7 0 0 Z " fill="#2E4F8F" transform="translate(341,331)"/>
<path d="M0 0 C2.15377564 2.62198774 3.40072174 4.64404172 4 8 C4.66 8 5.32 8 6 8 C6 8.66 6 9.32 6 10 C6.99 10 7.98 10 9 10 C9.33 11.98 9.66 13.96 10 16 C4.9990269 12.71364625 2.33918056 8.4050002 0 3 C0 2.01 0 1.02 0 0 Z " fill="#5D88CD" transform="translate(61,389)"/>
<path d="M0 0 C1.98 0.495 1.98 0.495 4 1 C4.33 2.98 4.66 4.96 5 7 C2 7 2 7 -1 6 C-0.67 4.02 -0.34 2.04 0 0 Z " fill="#F8FBFD" transform="translate(251,346)"/>
<path d="M0 0 C-5.445 3.96 -5.445 3.96 -11 8 C-11.33 7.01 -11.66 6.02 -12 5 C-4.71287129 -1.17821782 -4.71287129 -1.17821782 0 0 Z " fill="#E2EEF8" transform="translate(428,332)"/>
<path d="M0 0 C2.31 0.66 4.62 1.32 7 2 C7 3.65 7 5.3 7 7 C6.67 6.34 6.34 5.68 6 5 C5.01 6.485 5.01 6.485 4 8 C1.375 8.6875 1.375 8.6875 -1 9 C-0.01 7.35 0.98 5.7 2 4 C1.01 3.01 0.02 2.02 -1 1 C-0.67 0.67 -0.34 0.34 0 0 Z " fill="#2E4F91" transform="translate(406,332)"/>
<path d="M0 0 C1.98 0.66 3.96 1.32 6 2 C6.80688405 5.94476647 7.00000429 7.99998285 6 12 C4.02 8.04 2.04 4.08 0 0 Z " fill="#305393" transform="translate(264,347)"/>
<path d="M0 0 C0.33 0.99 0.66 1.98 1 3 C0.34 3 -0.32 3 -1 3 C-0.49396008 5.16874252 -0.00016187 6.99967627 1 9 C-2.36720387 7.60667426 -3.9859524 6.0210714 -6 3 C-3.375 0 -3.375 0 0 0 Z " fill="#598BDD" transform="translate(77,402)"/>
<path d="M0 0 C-1.22527029 4.05281712 -2.69880494 7.44360764 -5 11 C-6 8 -6 8 -5.0625 5.8125 C-4.711875 5.214375 -4.36125 4.61625 -4 4 C-4.99 3.67 -5.98 3.34 -7 3 C-7 2.34 -7 1.68 -7 1 C-4.50935112 0.31292445 -2.62113708 0 0 0 Z " fill="#5987D3" transform="translate(439,389)"/>
<path d="M0 0 C4.95 0 9.9 0 15 0 C14.67 0.99 14.34 1.98 14 3 C12.04174127 3.02694851 10.08337774 3.04637218 8.125 3.0625 C7.03445313 3.07410156 5.94390625 3.08570313 4.8203125 3.09765625 C2 3 2 3 0 2 C0 1.34 0 0.68 0 0 Z " fill="#3F5B96" transform="translate(344,373)"/>
<path d="M0 0 C1.39195915 4.17587745 -0.17676781 6.13474776 -2 10 C-5 8 -5 8 -6 6 C-4 4 -2 2 0 0 Z " fill="#294E92" transform="translate(325,363)"/>
<path d="M0 0 C1.32 0 2.64 0 4 0 C2.7508258 3.45925163 1.32472205 6.14693203 -1 9 C-1.80967438 6.08517222 -2.21845993 4.53886783 -1.0625 1.6875 C-0.711875 1.130625 -0.36125 0.57375 0 0 Z " fill="#334F94" transform="translate(236,341)"/>
<path d="M0 0 C4.47427924 -0.08948558 8.60563789 0.14256349 13 1 C13 1.66 13 2.32 13 3 C11.39667209 3.08121924 9.79215974 3.13929134 8.1875 3.1875 C7.29417969 3.22230469 6.40085937 3.25710938 5.48046875 3.29296875 C2.58352485 2.95081002 1.77444972 2.24606427 0 0 Z " fill="#395493" transform="translate(392,340)"/>
<path d="M0 0 C1.5625 1.8125 1.5625 1.8125 3 4 C2.67 4.99 2.34 5.98 2 7 C0.35 6.67 -1.3 6.34 -3 6 C-2.67 4.68 -2.34 3.36 -2 2 C-1.34 2 -0.68 2 0 2 C0 1.34 0 0.68 0 0 Z " fill="#274687" transform="translate(470,321)"/>
<path d="M0 0 C0.99 0.33 1.98 0.66 3 1 C3.33 1 3.66 1 4 1 C5.33568021 1.32380126 6.66923011 1.65657551 8 2 C6 4 6 4 2.875 4.125 C1.451875 4.063125 1.451875 4.063125 0 4 C0 2.68 0 1.36 0 0 Z " fill="#244C8E" transform="translate(440,386)"/>
<path d="M0 0 C1.98 0.99 3.96 1.98 6 3 C5.01 4.485 5.01 4.485 4 6 C1.375 6.1875 1.375 6.1875 -1 6 C-0.67 4.02 -0.34 2.04 0 0 Z " fill="#2E5193" transform="translate(337,369)"/>
<path d="M0 0 C0.99 0 1.98 0 3 0 C4.39300182 1.95890881 5.72245446 3.9639118 7 6 C8.62351109 7.79394446 8.62351109 7.79394446 10 9 C7.61435923 8.42415568 5.33317216 7.77772405 3 7 C2.87625 6.030625 2.7525 5.06125 2.625 4.0625 C2.41875 3.051875 2.2125 2.04125 2 1 C1.34 0.67 0.68 0.34 0 0 Z " fill="#34518D" transform="translate(413,363)"/>
<path d="M0 0 C0.86625 0.3403125 0.86625 0.3403125 1.75 0.6875 C0.574375 1.615625 0.574375 1.615625 -0.625 2.5625 C-3.21837647 4.58608661 -3.21837647 4.58608661 -5.25 6.6875 C-5.58 5.3675 -5.91 4.0475 -6.25 2.6875 C-2.80384615 -0.38942308 -2.80384615 -0.38942308 0 0 Z " fill="#D8E9F4" transform="translate(345.25,342.3125)"/>
<path d="M0 0 C3.98175544 2.10148204 6.35039045 4.36905358 9 8 C5.75728494 7.4409112 4.06942576 6.5867822 2 4 C2 3.34 2 2.68 2 2 C1.34 2 0.68 2 0 2 C0 1.34 0 0.68 0 0 Z " fill="#28447E" transform="translate(216,92)"/>
<path d="M0 0 C1.05283182 3.15849546 1.29904469 4.030755 0 7 C-2.5625 8.75 -2.5625 8.75 -5 10 C-3.66511872 6.40608886 -2.03977277 3.24509304 0 0 Z " fill="#D8E8F4" transform="translate(243,336)"/>
<path d="M0 0 C0.763125 0.20625 1.52625 0.4125 2.3125 0.625 C1.714375 0.893125 1.11625 1.16125 0.5 1.4375 C-1.73077908 2.5143979 -1.73077908 2.5143979 -3.3125 4.25 C-3.76625 4.70375 -4.22 5.1575 -4.6875 5.625 C-5.3475 5.625 -6.0075 5.625 -6.6875 5.625 C-6.375 3.75 -6.375 3.75 -5.6875 1.625 C-2.6875 -0.375 -2.6875 -0.375 0 0 Z " fill="#2F4C8A" transform="translate(392.6875,341.375)"/>
<path d="M0 0 C0.33 0 0.66 0 1 0 C1 3.3 1 6.6 1 10 C0.34 9.67 -0.32 9.34 -1 9 C-1.94934202 6.07286212 -2.23176473 4.57168632 -1.0625 1.6875 C-0.711875 1.130625 -0.36125 0.57375 0 0 Z " fill="#25478C" transform="translate(414,336)"/>
<path d="M0 0 C2.64 1.65 5.28 3.3 8 5 C7.01 5.495 7.01 5.495 6 6 C3.64018187 5.06421005 1.30368736 4.06652192 -1 3 C-0.67 2.01 -0.34 1.02 0 0 Z " fill="#5D84C9" transform="translate(414,162)"/>
<path d="M0 0 C0.99 0.33 1.98 0.66 3 1 C4.15941038 4.47823115 3.70820884 6.45895578 3 10 C0.70366176 6.55549263 0.45983515 4.06187717 0 0 Z " fill="#5880C4" transform="translate(58,379)"/>
<path d="M0 0 C2 3 2 3 2 6 C-0.49064888 6.68707555 -2.37886292 7 -5 7 C-4.360625 6.21625 -3.72125 5.4325 -3.0625 4.625 C-1.01857687 2.20460719 -1.01857687 2.20460719 0 0 Z " fill="#2F518F" transform="translate(370,362)"/>
<path d="M0 0 C1.65 0.33 3.3 0.66 5 1 C4.67 1.99 4.34 2.98 4 4 C1.9375 4.6875 1.9375 4.6875 0 5 C-0.33 4.01 -0.66 3.02 -1 2 C-0.67 1.34 -0.34 0.68 0 0 Z " fill="#325697" transform="translate(327,358)"/>
<path d="M0 0 C2 1.75 2 1.75 4 4 C4 5.32 4 6.64 4 8 C3.34 8 2.68 8 2 8 C1.67 7.01 1.34 6.02 1 5 C0.34 4.67 -0.32 4.34 -1 4 C-0.67 2.68 -0.34 1.36 0 0 Z " fill="#E6EFFB" transform="translate(245,348)"/>
<path d="M0 0 C4.875 1.75 4.875 1.75 6 4 C3.36 4 0.72 4 -2 4 C-2 3.34 -2 2.68 -2 2 C-1.34 2 -0.68 2 0 2 C0 1.34 0 0.68 0 0 Z " fill="#E0E9F5" transform="translate(350,338)"/>
<path d="M0 0 C4.21912747 0.4794463 6.79663178 1.16625119 10 4 C8.72125 3.896875 7.4425 3.79375 6.125 3.6875 C5.04605469 3.60048828 5.04605469 3.60048828 3.9453125 3.51171875 C2 3 2 3 0 0 Z " fill="#29447E" transform="translate(455,311)"/>
<path d="M0 0 C0 0.99 0 1.98 0 3 C-2.5 5.1875 -2.5 5.1875 -5 7 C-5 5.35 -5 3.7 -5 2 C-3.35 1.34 -1.7 0.68 0 0 Z " fill="#5D8AD0" transform="translate(432,400)"/>
<path d="M0 0 C3.2542015 2.83430453 4.5206753 4.68607774 5 9 C4.34 9 3.68 9 3 9 C2.01 6.03 1.02 3.06 0 0 Z " fill="#D7E7F3" transform="translate(322,339)"/>
</svg>
