<?xml version="1.0" encoding="UTF-8"?>
<!DOCTYPE svg PUBLIC "-//W3C//DTD SVG 1.1//EN" "http://www.w3.org/Graphics/SVG/1.1/DTD/svg11.dtd">
<svg xmlns="http://www.w3.org/2000/svg" version="1.1" width="500px" height="500px" style="shape-rendering:geometricPrecision; text-rendering:geometricPrecision; image-rendering:optimizeQuality; fill-rule:evenodd; clip-rule:evenodd" xmlns:xlink="http://www.w3.org/1999/xlink">
<g><path style="opacity:0.817" fill="#22376c" d="M 96.5,80.5 C 120.339,80.1691 144.006,80.5024 167.5,81.5C 142.498,81.3334 117.498,81.5 92.5,82C 89.4888,82.7431 86.8221,84.0765 84.5,86C 82.8659,86.4935 81.1992,86.6602 79.5,86.5C 84.5349,82.9314 90.2016,80.9314 96.5,80.5 Z"/></g>
<g><path style="opacity:1" fill="#1e4797" d="M 199.5,84.5 C 205.026,86.3509 210.359,88.6842 215.5,91.5C 217.308,93.8812 218.808,96.5479 220,99.5C 221.66,102.27 223.827,103.437 226.5,103C 227.915,106.751 230.415,109.584 234,111.5C 234.333,112.833 234.667,114.167 235,115.5C 237.998,117.668 240.831,120.001 243.5,122.5C 243.622,126.147 245.288,128.981 248.5,131C 253.347,133.095 258.347,134.595 263.5,135.5C 264.263,136.268 265.263,136.768 266.5,137C 305.499,137.5 344.499,137.667 383.5,137.5C 388.099,139.461 392.765,141.461 397.5,143.5C 400.891,144.529 403.557,146.529 405.5,149.5C 405.731,152.063 407.065,153.73 409.5,154.5C 411.95,156.629 413.617,159.296 414.5,162.5C 411.157,161.776 407.824,160.943 404.5,160C 372.5,159.333 340.5,159.333 308.5,160C 293.409,162.629 280.909,169.796 271,181.5C 263.916,191.255 256.083,200.422 247.5,209C 243.952,210.941 240.286,212.607 236.5,214C 196.872,215.304 157.205,215.971 117.5,216C 98.4338,220.733 86.2671,232.566 81,251.5C 80.6667,293.167 80.3333,334.833 80,376.5C 74.9343,385.482 68.4343,386.815 60.5,380.5C 60.5,380.167 60.5,379.833 60.5,379.5C 60.3301,375.355 60.9967,371.355 62.5,367.5C 63.8333,287.5 63.8333,207.5 62.5,127.5C 61.8243,126.398 61.1577,125.398 60.5,124.5C 60.5029,119.473 60.8363,114.473 61.5,109.5C 62.038,107.883 62.3713,106.216 62.5,104.5C 66.1201,103.548 67.7868,101.215 67.5,97.5C 69.8333,95.5 72.1667,93.5 74.5,91.5C 76.143,91.4802 77.4763,92.1468 78.5,93.5C 79.4519,91.9547 79.7852,90.288 79.5,88.5C 82.5547,89.0362 85.5547,89.8695 88.5,91C 87.1667,91.6667 87.1667,92.3333 88.5,93C 91.053,93.8513 93.3863,93.518 95.5,92C 93.6031,90.8903 91.7698,90.7236 90,91.5C 89.3828,90.5509 89.5494,89.7175 90.5,89C 85.8577,87.1697 85.691,85.6697 90,84.5C 91.4469,84.9452 92.7803,85.6119 94,86.5C 96.6667,85.1667 99.3333,85.1667 102,86.5C 102.5,86.3333 103,86.1667 103.5,86C 102.09,85.6322 101.09,84.7989 100.5,83.5C 129.828,82.3335 159.161,82.1668 188.5,83C 191.796,85.5492 195.462,86.0492 199.5,84.5 Z"/></g>
<g><path style="opacity:1" fill="#1f488f" d="M 167.5,81.5 C 174.841,81.3337 182.174,81.5003 189.5,82C 193.09,82.3106 196.423,83.144 199.5,84.5C 195.462,86.0492 191.796,85.5492 188.5,83C 159.161,82.1668 129.828,82.3335 100.5,83.5C 101.09,84.7989 102.09,85.6322 103.5,86C 103,86.1667 102.5,86.3333 102,86.5C 99.3333,85.1667 96.6667,85.1667 94,86.5C 92.7803,85.6119 91.4469,84.9452 90,84.5C 85.691,85.6697 85.8577,87.1697 90.5,89C 89.5494,89.7175 89.3828,90.5509 90,91.5C 91.7698,90.7236 93.6031,90.8903 95.5,92C 93.3863,93.518 91.053,93.8513 88.5,93C 87.1667,92.3333 87.1667,91.6667 88.5,91C 85.5547,89.8695 82.5547,89.0362 79.5,88.5C 79.7852,90.288 79.4519,91.9547 78.5,93.5C 77.4763,92.1468 76.143,91.4802 74.5,91.5C 74.8333,90.8333 75.1667,90.1667 75.5,89.5C 76.2623,87.7376 77.5956,86.7376 79.5,86.5C 81.1992,86.6602 82.8659,86.4935 84.5,86C 86.8221,84.0765 89.4888,82.7431 92.5,82C 117.498,81.5 142.498,81.3334 167.5,81.5 Z"/></g>
<g><path style="opacity:1" fill="#0b1e43" d="M 96.5,80.5 C 126.331,79.3361 156.331,79.1695 186.5,80C 197.499,80.8256 207.166,84.6589 215.5,91.5C 210.359,88.6842 205.026,86.3509 199.5,84.5C 196.423,83.144 193.09,82.3106 189.5,82C 182.174,81.5003 174.841,81.3337 167.5,81.5C 144.006,80.5024 120.339,80.1691 96.5,80.5 Z"/></g>
<g><path style="opacity:0.753" fill="#0d2046" d="M 75.5,89.5 C 75.1667,90.1667 74.8333,90.8333 74.5,91.5C 72.1667,93.5 69.8333,95.5 67.5,97.5C 69.1667,93.8333 71.8333,91.1667 75.5,89.5 Z"/></g>
<g><path style="opacity:0.416" fill="#0f152c" d="M 221.5,95.5 C 223.914,96.9108 225.581,98.9108 226.5,101.5C 224.086,100.089 222.419,98.0892 221.5,95.5 Z"/></g>
<g><path style="opacity:1" fill="#1f3d78" d="M 215.5,91.5 C 217.754,92.4151 219.754,93.7484 221.5,95.5C 222.419,98.0892 224.086,100.089 226.5,101.5C 227.5,101.833 228.167,102.5 228.5,103.5C 229.08,105.749 230.413,107.415 232.5,108.5C 236.647,112.795 240.313,117.462 243.5,122.5C 240.831,120.001 237.998,117.668 235,115.5C 234.667,114.167 234.333,112.833 234,111.5C 230.415,109.584 227.915,106.751 226.5,103C 223.827,103.437 221.66,102.27 220,99.5C 218.808,96.5479 217.308,93.8812 215.5,91.5 Z"/></g>
<g><path style="opacity:1" fill="#1c3464" d="M 67.5,97.5 C 67.7868,101.215 66.1201,103.548 62.5,104.5C 63.4333,101.63 65.1,99.2964 67.5,97.5 Z"/></g>
<g><path style="opacity:0.718" fill="#0c1f3b" d="M 228.5,103.5 C 230.587,104.585 231.92,106.251 232.5,108.5C 230.413,107.415 229.08,105.749 228.5,103.5 Z"/></g>
<g><path style="opacity:0.725" fill="#0b1a3f" d="M 62.5,104.5 C 62.3713,106.216 62.038,107.883 61.5,109.5C 60.8333,110.167 60.1667,110.833 59.5,111.5C 59.7073,108.759 60.7073,106.426 62.5,104.5 Z"/></g>
<g><path style="opacity:1" fill="#1a3669" d="M 243.5,122.5 C 249.153,128.504 255.82,132.837 263.5,135.5C 258.347,134.595 253.347,133.095 248.5,131C 245.288,128.981 243.622,126.147 243.5,122.5 Z"/></g>
<g><path style="opacity:0.395" fill="#091b46" d="M 59.5,111.5 C 58.5202,202.155 58.1869,292.821 58.5,383.5C 57.7839,381.444 57.1172,379.277 56.5,377C 57.3319,289.903 57.8319,202.737 58,115.5C 58.21,113.942 58.71,112.609 59.5,111.5 Z"/></g>
<g><path style="opacity:1" fill="#284788" d="M 61.5,109.5 C 60.8363,114.473 60.5029,119.473 60.5,124.5C 59.1709,209.627 59.1709,294.627 60.5,379.5C 60.5,379.833 60.5,380.167 60.5,380.5C 59.5489,381.919 59.2155,383.585 59.5,385.5C 58.6618,385.158 58.3284,384.492 58.5,383.5C 58.1869,292.821 58.5202,202.155 59.5,111.5C 60.1667,110.833 60.8333,110.167 61.5,109.5 Z"/></g>
<g><path style="opacity:1" fill="#1d4896" d="M 60.5,124.5 C 61.1577,125.398 61.8243,126.398 62.5,127.5C 63.8333,207.5 63.8333,287.5 62.5,367.5C 60.9967,371.355 60.3301,375.355 60.5,379.5C 59.1709,294.627 59.1709,209.627 60.5,124.5 Z"/></g>
<g><path style="opacity:0.741" fill="#132342" d="M 263.5,135.5 C 301.501,135.333 339.501,135.5 377.5,136C 379.708,136.191 381.708,136.691 383.5,137.5C 344.499,137.667 305.499,137.5 266.5,137C 265.263,136.768 264.263,136.268 263.5,135.5 Z"/></g>
<g><path style="opacity:0.282" fill="#07183b" d="M 383.5,137.5 C 388.937,137.89 393.604,139.89 397.5,143.5C 392.765,141.461 388.099,139.461 383.5,137.5 Z"/></g>
<g><path style="opacity:0.537" fill="#132345" d="M 405.5,149.5 C 407.587,150.585 408.92,152.251 409.5,154.5C 407.065,153.73 405.731,152.063 405.5,149.5 Z"/></g>
<g><path style="opacity:1" fill="#355187" d="M 415.5,163.5 C 417.819,163.992 419.819,164.992 421.5,166.5C 419.799,166.034 418.299,166.034 417,166.5C 415.961,165.756 415.461,164.756 415.5,163.5 Z"/></g>
<g><path style="opacity:0.725" fill="#253a61" d="M 424.5,168.5 C 425.833,169.167 426.833,170.167 427.5,171.5C 425.5,171.5 424.5,170.5 424.5,168.5 Z"/></g>
<g><path style="opacity:1" fill="#5289e6" d="M 414.5,162.5 C 415.167,162.5 415.5,162.833 415.5,163.5C 415.461,164.756 415.961,165.756 417,166.5C 418.299,166.034 419.799,166.034 421.5,166.5C 422.5,167.167 423.5,167.833 424.5,168.5C 424.5,170.5 425.5,171.5 427.5,171.5C 428.974,173.979 429.974,176.646 430.5,179.5C 431.5,179.5 432.5,179.5 433.5,179.5C 434.906,179.973 435.573,180.973 435.5,182.5C 435.427,184.027 436.094,185.027 437.5,185.5C 438.939,187.588 439.606,189.921 439.5,192.5C 439.832,254.002 439.499,315.336 438.5,376.5C 438.5,320.167 438.5,263.833 438.5,207.5C 434.484,206.288 432.484,203.455 432.5,199C 432.751,195.738 433.751,192.738 435.5,190C 434.352,188.274 433.185,188.441 432,190.5C 430.913,188.068 430.413,188.402 430.5,191.5C 428.167,191.5 425.833,191.5 423.5,191.5C 424.684,220.641 425.351,249.807 425.5,279C 425.462,304.254 424.796,329.42 423.5,354.5C 426.292,354.452 428.125,355.785 429,358.5C 429.978,361.669 429.478,364.503 427.5,367C 429.387,370.707 429.72,374.54 428.5,378.5C 426.717,376.977 426.051,374.977 426.5,372.5C 424.901,372.768 423.568,372.434 422.5,371.5C 422.219,367.118 420.885,363.118 418.5,359.5C 419.939,357.657 419.772,355.99 418,354.5C 417.51,355.793 417.343,357.127 417.5,358.5C 408.991,356.955 400.324,355.955 391.5,355.5C 391.5,357.167 391.5,358.833 391.5,360.5C 385.745,367.792 386.411,374.458 393.5,380.5C 394.598,381.397 394.598,382.23 393.5,383C 391.292,383.191 389.292,383.691 387.5,384.5C 387.488,391.643 390.821,396.476 397.5,399C 403.61,399.732 409.61,399.232 415.5,397.5C 416.5,397.5 417.5,397.5 418.5,397.5C 417.957,401.015 416.957,404.348 415.5,407.5C 417.5,407.5 419.5,407.5 421.5,407.5C 421.5,408.5 421.5,409.5 421.5,410.5C 417.777,410.534 414.777,411.867 412.5,414.5C 409.417,414.916 406.417,415.583 403.5,416.5C 300.165,416.833 196.831,416.5 93.5,415.5C 88.2125,414.893 83.2125,413.56 78.5,411.5C 77.656,409.241 75.9893,408.241 73.5,408.5C 73.5,408.167 73.5,407.833 73.5,407.5C 72.5944,405.583 71.2611,403.917 69.5,402.5C 68.2528,400.677 67.5861,398.677 67.5,396.5C 66.325,396.719 65.325,396.386 64.5,395.5C 63.8195,393.111 62.9862,390.778 62,388.5C 61.3292,387.748 60.4959,387.414 59.5,387.5C 59.5,386.833 59.5,386.167 59.5,385.5C 59.2155,383.585 59.5489,381.919 60.5,380.5C 68.4343,386.815 74.9343,385.482 80,376.5C 80.3333,334.833 80.6667,293.167 81,251.5C 86.2671,232.566 98.4338,220.733 117.5,216C 157.205,215.971 196.872,215.304 236.5,214C 240.286,212.607 243.952,210.941 247.5,209C 256.083,200.422 263.916,191.255 271,181.5C 280.909,169.796 293.409,162.629 308.5,160C 340.5,159.333 372.5,159.333 404.5,160C 407.824,160.943 411.157,161.776 414.5,162.5 Z"/></g>
<g><path style="opacity:1" fill="#456aaa" d="M 427.5,171.5 C 430.471,173.443 432.471,176.109 433.5,179.5C 432.5,179.5 431.5,179.5 430.5,179.5C 429.974,176.646 428.974,173.979 427.5,171.5 Z"/></g>
<g><path style="opacity:0.357" fill="#20365c" d="M 435.5,182.5 C 436.906,182.973 437.573,183.973 437.5,185.5C 436.094,185.027 435.427,184.027 435.5,182.5 Z"/></g>
<g><path style="opacity:1" fill="#5288e8" d="M 438.5,376.5 C 438.5,379.833 438.5,383.167 438.5,386.5C 437.194,387.467 436.527,388.801 436.5,390.5C 433.239,390.1 432.572,391.267 434.5,394C 433.693,396.882 432.026,399.049 429.5,400.5C 428.548,402.045 428.215,403.712 428.5,405.5C 427.839,404.282 427.172,402.949 426.5,401.5C 425.304,401.846 425.304,402.346 426.5,403C 424.871,403.585 423.371,404.419 422,405.5C 420.7,406.452 419.533,406.452 418.5,405.5C 419.5,403.833 420.833,402.5 422.5,401.5C 423.452,399.955 423.785,398.288 423.5,396.5C 422.127,396.657 420.793,396.49 419.5,396C 421.19,394.01 422.523,391.843 423.5,389.5C 423.735,386.952 422.735,385.286 420.5,384.5C 420.5,384.167 420.5,383.833 420.5,383.5C 420.672,381.508 420.005,379.842 418.5,378.5C 420.5,377.833 422.5,377.167 424.5,376.5C 424.333,376.167 424.167,375.833 424,375.5C 421.282,374.987 418.449,374.987 415.5,375.5C 415.5,374.5 415.5,373.5 415.5,372.5C 417.415,372.784 419.081,372.451 420.5,371.5C 421.167,371.5 421.833,371.5 422.5,371.5C 423.568,372.434 424.901,372.768 426.5,372.5C 426.051,374.977 426.717,376.977 428.5,378.5C 429.72,374.54 429.387,370.707 427.5,367C 429.478,364.503 429.978,361.669 429,358.5C 428.125,355.785 426.292,354.452 423.5,354.5C 424.796,329.42 425.462,304.254 425.5,279C 425.351,249.807 424.684,220.641 423.5,191.5C 425.833,191.5 428.167,191.5 430.5,191.5C 430.413,188.402 430.913,188.068 432,190.5C 433.185,188.441 434.352,188.274 435.5,190C 433.751,192.738 432.751,195.738 432.5,199C 432.484,203.455 434.484,206.288 438.5,207.5C 438.5,263.833 438.5,320.167 438.5,376.5 Z"/></g>
<g><path style="opacity:1" fill="#598dd8" d="M 439.5,192.5 C 440.338,192.842 440.672,193.508 440.5,194.5C 440.804,258.179 440.471,321.846 439.5,385.5C 439.5,385.833 439.5,386.167 439.5,386.5C 439.167,386.5 438.833,386.5 438.5,386.5C 438.5,383.167 438.5,379.833 438.5,376.5C 439.499,315.336 439.832,254.002 439.5,192.5 Z"/></g>
<g><path style="opacity:0.595" fill="#284a7f" d="M 440.5,194.5 C 441.665,257.332 441.832,320.332 441,383.5C 440.722,384.416 440.222,385.082 439.5,385.5C 440.471,321.846 440.804,258.179 440.5,194.5 Z"/></g>
<g><path style="opacity:1" fill="#b8d4fc" d="M 282.5,359.5 C 276.833,359.5 271.167,359.5 265.5,359.5C 265.5,372.833 265.5,386.167 265.5,399.5C 264.504,386.01 264.171,372.344 264.5,358.5C 270.69,358.177 276.69,358.51 282.5,359.5 Z"/></g>
<g><path style="opacity:1" fill="#f9fcfd" d="M 282.5,359.5 C 291.908,360.903 297.908,366.236 300.5,375.5C 300.881,380.802 299.881,385.802 297.5,390.5C 294.236,394.247 290.236,397.08 285.5,399C 278.842,399.5 272.175,399.666 265.5,399.5C 265.5,386.167 265.5,372.833 265.5,359.5C 271.167,359.5 276.833,359.5 282.5,359.5 Z"/></g>
<g><path style="opacity:1" fill="#f7fbfd" d="M 305.5,389.5 C 303.701,385.097 303.034,380.43 303.5,375.5C 309.065,359.262 319.731,354.762 335.5,362C 344.481,368.914 346.981,377.748 343,388.5C 334.997,400.725 324.497,403.558 311.5,397C 309.286,394.625 307.286,392.125 305.5,389.5 Z"/></g>
<g><path style="opacity:1" fill="#608bd9" d="M 422.5,371.5 C 421.833,371.5 421.167,371.5 420.5,371.5C 420.462,365.283 417.462,361.116 411.5,359C 404.603,356.79 397.937,357.29 391.5,360.5C 391.5,358.833 391.5,357.167 391.5,355.5C 400.324,355.955 408.991,356.955 417.5,358.5C 417.343,357.127 417.51,355.793 418,354.5C 419.772,355.99 419.939,357.657 418.5,359.5C 420.885,363.118 422.219,367.118 422.5,371.5 Z"/></g>
<g><path style="opacity:1" fill="#f5fafd" d="M 362.5,357.5 C 369.732,356.413 376.066,358.246 381.5,363C 379.65,365.018 377.65,366.851 375.5,368.5C 367.258,364.45 361.091,366.45 357,374.5C 356.226,388.204 362.393,392.871 375.5,388.5C 377.483,389.982 379.316,391.649 381,393.5C 381.688,394.332 381.521,394.998 380.5,395.5C 369.906,401.639 360.406,400.305 352,391.5C 343.678,376.484 347.178,365.151 362.5,357.5 Z"/></g>
<g><path style="opacity:1" fill="#f6fbfd" d="M 420.5,371.5 C 417.813,371.664 415.146,371.497 412.5,371C 410.63,367.398 407.63,365.898 403.5,366.5C 401.833,366.667 400.167,366.833 398.5,367C 396.342,368.312 396.009,369.978 397.5,372C 398.833,372.667 400.167,373.333 401.5,374C 409.556,374.028 415.889,377.194 420.5,383.5C 420.5,383.833 420.5,384.167 420.5,384.5C 421.322,389.846 419.655,394.18 415.5,397.5C 409.61,399.232 403.61,399.732 397.5,399C 390.821,396.476 387.488,391.643 387.5,384.5C 390.5,384.5 393.5,384.5 396.5,384.5C 395.965,387.238 396.965,389.072 399.5,390C 403.027,390.808 406.36,390.641 409.5,389.5C 411.344,388.796 411.844,387.463 411,385.5C 408.772,383.887 406.272,383.22 403.5,383.5C 400.274,382.511 396.94,381.511 393.5,380.5C 386.411,374.458 385.745,367.792 391.5,360.5C 397.937,357.29 404.603,356.79 411.5,359C 417.462,361.116 420.462,365.283 420.5,371.5 Z"/></g>
<g><path style="opacity:1" fill="#5a8ce2" d="M 313.5,384.5 C 313.5,381.167 313.5,377.833 313.5,374.5C 316.459,368.027 321.459,365.861 328.5,368C 335.549,372.487 337.383,378.654 334,386.5C 328.34,392.229 322.173,392.896 315.5,388.5C 314.37,387.378 313.703,386.044 313.5,384.5 Z"/></g>
<g><path style="opacity:1" fill="#87a7d9" d="M 283.5,369.5 C 280.833,369.5 278.167,369.5 275.5,369.5C 275.5,376.167 275.5,382.833 275.5,389.5C 277.833,389.5 280.167,389.5 282.5,389.5C 280.052,390.473 277.385,390.806 274.5,390.5C 274.5,383.167 274.5,375.833 274.5,368.5C 277.713,368.19 280.713,368.523 283.5,369.5 Z"/></g>
<g><path style="opacity:1" fill="#5888db" d="M 283.5,369.5 C 291.27,372.719 293.104,378.053 289,385.5C 288.292,386.381 287.458,387.047 286.5,387.5C 285.486,388.674 284.153,389.34 282.5,389.5C 280.167,389.5 277.833,389.5 275.5,389.5C 275.5,382.833 275.5,376.167 275.5,369.5C 278.167,369.5 280.833,369.5 283.5,369.5 Z"/></g>
<g><path style="opacity:1" fill="#5188ea" d="M 286.5,387.5 C 278.649,388.729 276.983,388.729 281.5,387.5C 281.5,386.167 281.5,384.833 281.5,383.5C 282.978,383.762 284.311,383.429 285.5,382.5C 283.257,381.526 280.924,381.192 278.5,381.5C 278.719,382.675 278.386,383.675 277.5,384.5C 276.507,379.88 276.173,375.214 276.5,370.5C 278.833,370.5 281.167,370.5 283.5,370.5C 282.145,373.453 282.478,376.119 284.5,378.5C 286.471,374.638 288.137,374.638 289.5,378.5C 288.759,381.634 287.759,384.634 286.5,387.5 Z"/></g>
<g><path style="opacity:1" fill="#618fdc" d="M 420.5,371.5 C 419.081,372.451 417.415,372.784 415.5,372.5C 415.5,373.5 415.5,374.5 415.5,375.5C 418.449,374.987 421.282,374.987 424,375.5C 424.167,375.833 424.333,376.167 424.5,376.5C 422.5,377.167 420.5,377.833 418.5,378.5C 420.005,379.842 420.672,381.508 420.5,383.5C 415.889,377.194 409.556,374.028 401.5,374C 400.167,373.333 398.833,372.667 397.5,372C 396.009,369.978 396.342,368.312 398.5,367C 400.167,366.833 401.833,366.667 403.5,366.5C 407.63,365.898 410.63,367.398 412.5,371C 415.146,371.497 417.813,371.664 420.5,371.5 Z"/></g>
<g><path style="opacity:1" fill="#5088e9" d="M 399.5,367.5 C 402.978,367.184 406.312,367.684 409.5,369C 410.167,370.667 410.833,372.333 411.5,374C 407.092,373.82 402.759,372.986 398.5,371.5C 398.433,370.041 398.766,368.708 399.5,367.5 Z"/></g>
<g><path style="opacity:1" fill="#cde2f5" d="M 323.5,372.5 C 326.184,376.02 328.518,379.853 330.5,384C 326.129,384.828 321.795,384.661 317.5,383.5C 319.779,379.939 321.779,376.273 323.5,372.5 Z"/></g>
<g><path style="opacity:1" fill="#7f9fde" d="M 313.5,374.5 C 313.5,377.833 313.5,381.167 313.5,384.5C 312.06,383.054 311.393,381.221 311.5,379C 311.307,376.992 311.974,375.492 313.5,374.5 Z"/></g>
<g><path style="opacity:1" fill="#6890d7" d="M 393.5,380.5 C 396.94,381.511 400.274,382.511 403.5,383.5C 401.565,384.15 399.565,384.483 397.5,384.5C 397.137,386.911 398.137,388.411 400.5,389C 403.482,389.498 406.482,389.665 409.5,389.5C 406.36,390.641 403.027,390.808 399.5,390C 396.965,389.072 395.965,387.238 396.5,384.5C 393.5,384.5 390.5,384.5 387.5,384.5C 389.292,383.691 391.292,383.191 393.5,383C 394.598,382.23 394.598,381.397 393.5,380.5 Z"/></g>
<g><path style="opacity:1" fill="#5588e6" d="M 403.5,383.5 C 406.272,383.22 408.772,383.887 411,385.5C 411.844,387.463 411.344,388.796 409.5,389.5C 406.482,389.665 403.482,389.498 400.5,389C 398.137,388.411 397.137,386.911 397.5,384.5C 399.565,384.483 401.565,384.15 403.5,383.5 Z"/></g>
<g><path style="opacity:1" fill="#6e98da" d="M 300.5,375.5 C 301.5,376.833 302.5,376.833 303.5,375.5C 303.034,380.43 303.701,385.097 305.5,389.5C 303.39,388.547 302.223,386.881 302,384.5C 301.119,387.014 299.619,389.014 297.5,390.5C 299.881,385.802 300.881,380.802 300.5,375.5 Z"/></g>
<g><path style="opacity:1" fill="#4564a4" d="M 59.5,387.5 C 60.4959,387.414 61.3292,387.748 62,388.5C 62.9862,390.778 63.8195,393.111 64.5,395.5C 65.325,396.386 66.325,396.719 67.5,396.5C 67.5861,398.677 68.2528,400.677 69.5,402.5C 71.2611,403.917 72.5944,405.583 73.5,407.5C 66.3991,402.663 61.7324,395.997 59.5,387.5 Z"/></g>
<g><path style="opacity:1" fill="#466daf" d="M 438.5,386.5 C 438.833,386.5 439.167,386.5 439.5,386.5C 437.616,393.944 433.949,400.277 428.5,405.5C 428.215,403.712 428.548,402.045 429.5,400.5C 432.026,399.049 433.693,396.882 434.5,394C 432.572,391.267 433.239,390.1 436.5,390.5C 436.527,388.801 437.194,387.467 438.5,386.5 Z"/></g>
<g><path style="opacity:1" fill="#4f84d6" d="M 420.5,384.5 C 422.735,385.286 423.735,386.952 423.5,389.5C 422.523,391.843 421.19,394.01 419.5,396C 420.793,396.49 422.127,396.657 423.5,396.5C 423.785,398.288 423.452,399.955 422.5,401.5C 420.833,402.5 419.5,403.833 418.5,405.5C 419.533,406.452 420.7,406.452 422,405.5C 423.371,404.419 424.871,403.585 426.5,403C 425.304,402.346 425.304,401.846 426.5,401.5C 427.172,402.949 427.839,404.282 428.5,405.5C 424.999,409.662 420.665,412.662 415.5,414.5C 414.5,414.5 413.5,414.5 412.5,414.5C 414.777,411.867 417.777,410.534 421.5,410.5C 421.5,409.5 421.5,408.5 421.5,407.5C 419.5,407.5 417.5,407.5 415.5,407.5C 416.957,404.348 417.957,401.015 418.5,397.5C 417.5,397.5 416.5,397.5 415.5,397.5C 419.655,394.18 421.322,389.846 420.5,384.5 Z"/></g>
<g><path style="opacity:0.808" fill="#3e548f" d="M 73.5,408.5 C 75.9893,408.241 77.656,409.241 78.5,411.5C 76.5659,410.89 74.8993,409.89 73.5,408.5 Z"/></g>
<g><path style="opacity:1" fill="#5d8ade" d="M 78.5,411.5 C 83.2125,413.56 88.2125,414.893 93.5,415.5C 196.831,416.5 300.165,416.833 403.5,416.5C 300.335,417.499 197.001,417.833 93.5,417.5C 87.7803,417.044 82.7803,415.044 78.5,411.5 Z"/></g>
<g><path style="opacity:0.82" fill="#374b7e" d="M 412.5,414.5 C 413.5,414.5 414.5,414.5 415.5,414.5C 410.843,416.753 405.843,418.253 400.5,419C 299.167,419.667 197.833,419.667 96.5,419C 95.2625,418.768 94.2625,418.268 93.5,417.5C 197.001,417.833 300.335,417.499 403.5,416.5C 406.417,415.583 409.417,414.916 412.5,414.5 Z"/></g>
</svg>
