<?xml version="1.0" standalone="no"?>
<!DOCTYPE svg PUBLIC "-//W3C//DTD SVG 20010904//EN"
 "http://www.w3.org/TR/2001/REC-SVG-20010904/DTD/svg10.dtd">
<svg version="1.0" xmlns="http://www.w3.org/2000/svg"
 width="500.000000pt" height="500.000000pt" viewBox="0 0 500.000000 500.000000"
 preserveAspectRatio="xMidYMid meet">

<g transform="translate(0.000000,500.000000) scale(0.100000,-0.100000)"
fill="#000000" stroke="none">
<path d="M902 2981 c-65 -23 -116 -70 -139 -130 -16 -42 -18 -95 -18 -601 0
-511 1 -559 18 -602 22 -57 81 -112 139 -130 34 -10 275 -13 1188 -13 1098 0
1146 1 1180 19 49 26 88 64 113 111 22 40 22 45 22 615 0 570 0 575 -22 615
-25 47 -64 85 -113 111 -33 18 -84 19 -1175 21 -1084 2 -1143 1 -1193 -16z
m1355 -441 c61 -26 125 -91 156 -158 34 -73 31 -198 -6 -274 -99 -202 -388
-233 -527 -56 -171 215 -12 529 260 514 38 -2 86 -12 117 -26z m-675 -13 c119
-58 174 -158 166 -301 -7 -123 -60 -205 -167 -258 -41 -21 -63 -23 -213 -26
l-168 -4 0 312 0 312 163 -3 c154 -4 165 -5 219 -32z m1373 8 c51 -25 111 -85
130 -131 24 -58 23 -60 -63 -58 -75 1 -78 2 -114 38 -33 33 -41 36 -91 36
-100 0 -157 -63 -157 -173 0 -66 16 -103 60 -140 59 -50 140 -45 195 13 27 28
33 30 108 30 l79 0 -7 -27 c-25 -104 -155 -193 -281 -193 -76 0 -168 36 -219
85 -70 69 -90 120 -90 235 0 84 3 101 27 145 33 62 89 118 148 145 60 28 214
25 275 -5z"/>
<path d="M2076 2420 c-68 -21 -106 -83 -106 -172 0 -108 56 -168 159 -168 94
0 148 53 158 153 6 68 -14 124 -60 160 -39 32 -101 43 -151 27z"/>
<path d="M1350 2254 l0 -176 78 3 c90 5 121 22 152 85 27 54 26 120 -3 175
-30 58 -89 89 -169 89 l-58 0 0 -176z"/>
</g>
</svg>
