<svg version="1.1" id="Layer_1" xmlns="http://www.w3.org/2000/svg" xmlns:xlink="http://www.w3.org/1999/xlink" x="0px" y="0px"
	 width="100%" viewBox="0 0 500 500" enable-background="new 0 0 500 500" xml:space="preserve">
<path fill="#000000" opacity="1.000000" stroke="none" 
	d="
M322.000000,501.000000 
	C214.666687,501.000000 107.833382,501.000000 1.000057,501.000000 
	C1.000038,334.333405 1.000038,167.666794 1.000019,1.000147 
	C167.666565,1.000098 334.333130,1.000098 500.999756,1.000049 
	C500.999847,167.666519 500.999847,334.333038 500.999939,500.999786 
	C441.500000,501.000000 382.000000,501.000000 322.000000,501.000000 
M415.752472,164.290894 
	C415.752472,164.290894 415.609802,164.201157 415.511169,163.524887 
	C406.330414,146.206329 391.734863,138.143921 372.344513,138.168182 
	C340.347076,138.208206 308.345978,137.922180 276.353760,138.337555 
	C262.649933,138.515503 252.228439,133.132492 243.833832,122.884247 
	C240.456985,118.761749 237.127686,114.589058 233.990189,110.283669 
	C219.899719,90.948219 201.131912,81.463112 177.025574,81.910614 
	C153.868820,82.340477 130.679977,82.565178 107.537437,81.845230 
	C79.838745,80.983543 59.075516,102.651970 59.361179,130.076157 
	C60.203022,210.894424 59.664299,291.727051 59.683910,372.554047 
	C59.684669,375.675964 59.870972,378.797821 60.005882,382.726440 
	C64.280266,405.115845 82.032387,419.931702 104.719582,419.940033 
	C201.345825,419.975525 297.973114,419.742950 394.597687,420.157928 
	C422.623535,420.278259 443.092285,399.200806 442.775848,372.276825 
	C442.135651,317.804016 442.527557,263.317993 442.657349,208.837784 
	C442.704712,188.975098 434.510956,174.248093 416.607727,164.643066 
	C416.397888,164.409210 416.142975,164.339218 415.752472,164.290894 
z"/>
<path fill="#528AE6" opacity="1.000000" stroke="none" 
	d="
M416.775604,165.022949 
	C434.510956,174.248093 442.704712,188.975098 442.657349,208.837784 
	C442.527557,263.317993 442.135651,317.804016 442.775848,372.276825 
	C443.092285,399.200806 422.623535,420.278259 394.597687,420.157928 
	C297.973114,419.742950 201.345825,419.975525 104.719582,419.940033 
	C82.032387,419.931702 64.280266,405.115845 60.144432,382.187134 
	C61.298134,382.255280 62.379745,382.774872 63.317905,383.484161 
	C70.607643,388.995850 80.145767,385.306702 81.630318,376.296631 
	C81.979095,374.179840 81.897697,371.980988 81.898674,369.819824 
	C81.914474,334.851227 81.892929,299.882629 81.940796,264.914093 
	C81.945793,261.265137 81.917374,257.534058 82.617477,253.981583 
	C86.892159,232.291092 105.063370,217.261047 127.409714,217.151672 
	C160.545837,216.989517 193.683502,217.024872 226.820023,217.131363 
	C237.602768,217.166000 246.772980,213.723099 253.965134,205.648254 
	C258.498383,200.558578 263.068024,195.442719 267.034698,189.917419 
	C281.594238,169.636810 301.157074,160.178589 326.128052,160.745178 
	C347.764008,161.236099 369.426453,160.536041 391.064117,160.987564 
	C399.264801,161.158676 407.428986,163.078430 415.609802,164.201141 
	C415.609802,164.201157 415.752472,164.290894 415.874115,164.558395 
	C415.995758,164.825897 416.355682,165.043243 416.355682,165.043243 
	C416.355682,165.043243 416.775604,165.022949 416.775604,165.022949 
M288.891296,362.062378 
	C288.891296,362.062378 288.739746,362.097717 288.297241,361.714294 
	C287.546143,361.557037 286.795013,361.399780 285.155334,361.017273 
	C281.855743,360.974182 278.556122,360.931091 274.642120,360.649384 
	C273.351654,360.731140 272.061157,360.812866 270.145721,360.745789 
	C269.508820,360.788452 268.871918,360.831116 267.949921,360.665833 
	C267.658661,360.790131 267.367432,360.914398 267.027893,361.000000 
	C267.027893,361.000000 267.030609,361.061829 266.396118,361.607178 
	C266.305939,374.114502 266.204041,386.621765 266.165222,399.129242 
	C266.163544,399.669373 266.742798,400.211304 267.884338,400.946411 
	C269.592560,400.919067 271.300781,400.891754 273.661774,401.011597 
	C274.102722,400.964111 274.543640,400.916595 275.891022,400.988007 
	C278.934662,400.891296 281.978333,400.794586 285.601471,400.749908 
	C285.934082,400.565948 286.266724,400.382019 287.096008,400.236450 
	C287.431702,400.191772 287.740326,400.075409 288.600647,399.911377 
	C289.087189,399.616974 289.573730,399.322571 290.737122,398.908722 
	C293.204468,396.723511 295.671814,394.538330 298.581390,392.026245 
	C298.702637,391.688446 298.823853,391.350647 299.378876,390.492828 
	C299.939728,389.033081 300.500580,387.573334 301.461792,385.410370 
	C301.343689,382.203949 301.225616,378.997498 301.061981,375.070129 
	C298.131561,371.342499 295.201111,367.614868 291.972717,363.461090 
	C291.655334,363.342377 291.337952,363.223663 290.762634,362.894989 
	C290.762634,362.894989 290.432861,362.851807 290.037567,362.459229 
	C289.684570,362.369904 289.331543,362.280579 288.891296,362.062378 
M398.275330,388.804688 
	C396.288513,383.964539 392.579224,386.493958 389.322906,386.435211 
	C388.395721,391.219757 390.709167,394.342743 393.730499,397.142548 
	C398.355286,401.428192 404.055328,401.387421 409.759216,400.841431 
	C416.907715,400.157166 421.703064,395.814392 422.150970,389.971710 
	C422.612823,383.946899 418.852997,379.037048 411.950684,376.983917 
	C409.247986,376.179993 406.392395,375.901855 403.660156,375.180786 
	C402.090210,374.766449 400.210785,374.299377 399.261169,373.183380 
	C398.609741,372.417816 398.767426,369.944946 399.520447,369.190826 
	C401.946259,366.761475 410.218567,367.050018 411.991974,369.949951 
	C414.689789,374.361511 418.055634,373.397858 422.840057,372.424164 
	C421.357056,369.382477 420.517456,366.441711 418.743591,364.260834 
	C414.225769,358.706360 407.783203,358.464783 401.332611,359.127075 
	C394.350372,359.844025 389.567719,364.277069 388.968048,370.171844 
	C388.336273,376.382172 391.712433,380.795776 399.096832,383.013062 
	C402.735687,384.105682 406.488281,384.819366 409.310455,385.831787 
	C405.814209,387.003418 402.317963,388.175018 398.275330,388.804688 
M342.122070,368.449097 
	C334.036072,359.489807 323.595428,357.576080 314.402344,363.368225 
	C305.680756,368.863312 302.137054,379.914520 306.122986,389.187653 
	C310.982178,400.492249 324.259491,405.394287 334.965393,399.836365 
	C346.392334,393.904144 349.617950,380.852692 342.122070,368.449097 
M358.486572,383.577789 
	C355.526428,375.647034 363.574219,365.683258 372.489258,368.743469 
	C378.162567,370.690887 380.247101,367.865173 382.890503,364.431793 
	C374.763184,356.672302 362.437347,357.502106 354.370728,366.178467 
	C346.532837,374.608826 347.232330,387.814117 355.934052,395.691772 
	C363.915558,402.917419 376.495483,402.962341 382.897430,395.565430 
	C380.170532,394.001221 379.716949,389.158661 374.725159,390.957489 
	C367.386627,393.601990 362.567871,391.434479 358.486572,383.577789 
z"/>
<path fill="#1E4796" opacity="1.000000" stroke="none" 
	d="
M415.560486,163.863007 
	C407.428986,163.078430 399.264801,161.158676 391.064117,160.987564 
	C369.426453,160.536041 347.764008,161.236099 326.128052,160.745178 
	C301.157074,160.178589 281.594238,169.636810 267.034698,189.917419 
	C263.068024,195.442719 258.498383,200.558578 253.965134,205.648254 
	C246.772980,213.723099 237.602768,217.166000 226.820023,217.131363 
	C193.683502,217.024872 160.545837,216.989517 127.409714,217.151672 
	C105.063370,217.261047 86.892159,232.291092 82.617477,253.981583 
	C81.917374,257.534058 81.945793,261.265137 81.940796,264.914093 
	C81.892929,299.882629 81.914474,334.851227 81.898674,369.819824 
	C81.897697,371.980988 81.979095,374.179840 81.630318,376.296631 
	C80.145767,385.306702 70.607643,388.995850 63.317905,383.484161 
	C62.379745,382.774872 61.298134,382.255280 60.126896,381.783752 
	C59.870972,378.797821 59.684669,375.675964 59.683910,372.554047 
	C59.664299,291.727051 60.203022,210.894424 59.361179,130.076157 
	C59.075516,102.651970 79.838745,80.983543 107.537437,81.845230 
	C130.679977,82.565178 153.868820,82.340477 177.025574,81.910614 
	C201.131912,81.463112 219.899719,90.948219 233.990189,110.283669 
	C237.127686,114.589058 240.456985,118.761749 243.833832,122.884247 
	C252.228439,133.132492 262.649933,138.515503 276.353760,138.337555 
	C308.345978,137.922180 340.347076,138.208206 372.344513,138.168182 
	C391.734863,138.143921 406.330414,146.206329 415.560486,163.863007 
z"/>
<path fill="#1E4796" opacity="1.000000" stroke="none" 
	d="
M416.691650,164.833008 
	C416.775604,165.022949 416.355682,165.043243 416.355682,165.043243 
	C416.355682,165.043243 415.995758,164.825897 415.919342,164.629486 
	C416.142975,164.339218 416.397888,164.409210 416.691650,164.833008 
z"/>
<path fill="#F4FAFD" opacity="1.000000" stroke="none" 
	d="
M342.353577,368.727478 
	C349.617950,380.852692 346.392334,393.904144 334.965393,399.836365 
	C324.259491,405.394287 310.982178,400.492249 306.122986,389.187653 
	C302.137054,379.914520 305.680756,368.863312 314.402344,363.368225 
	C323.595428,357.576080 334.036072,359.489807 342.353577,368.727478 
M321.503845,392.454987 
	C322.809967,392.666779 324.114594,393.049377 325.422424,393.060730 
	C331.004944,393.109070 335.989197,389.175507 337.077545,383.984802 
	C338.274658,378.275452 335.577362,372.595581 330.532013,370.201355 
	C325.508850,367.817688 319.189453,369.476868 315.794617,374.070709 
	C311.327972,380.114899 313.384399,387.575714 321.503845,392.454987 
z"/>
<path fill="#F3F9FD" opacity="1.000000" stroke="none" 
	d="
M410.189423,385.704559 
	C406.488281,384.819366 402.735687,384.105682 399.096832,383.013062 
	C391.712433,380.795776 388.336273,376.382172 388.968048,370.171844 
	C389.567719,364.277069 394.350372,359.844025 401.332611,359.127075 
	C407.783203,358.464783 414.225769,358.706360 418.743591,364.260834 
	C420.517456,366.441711 421.357056,369.382477 422.840057,372.424164 
	C418.055634,373.397858 414.689789,374.361511 411.991974,369.949951 
	C410.218567,367.050018 401.946259,366.761475 399.520447,369.190826 
	C398.767426,369.944946 398.609741,372.417816 399.261169,373.183380 
	C400.210785,374.299377 402.090210,374.766449 403.660156,375.180786 
	C406.392395,375.901855 409.247986,376.179993 411.950684,376.983917 
	C418.852997,379.037048 422.612823,383.946899 422.150970,389.971710 
	C421.703064,395.814392 416.907715,400.157166 409.759216,400.841431 
	C404.055328,401.387421 398.355286,401.428192 393.730499,397.142548 
	C390.709167,394.342743 388.395721,391.219757 389.322906,386.435211 
	C392.579224,386.493958 396.288513,383.964539 398.583405,389.253540 
	C399.009399,389.938507 399.198853,390.076080 399.723572,390.444946 
	C403.279266,391.124115 406.573486,391.713470 409.861969,391.683350 
	C410.909698,391.673767 412.862061,389.909943 412.771210,389.141388 
	C412.626801,387.919281 411.114899,386.858795 410.158875,385.723450 
	C410.136353,385.716980 410.189423,385.704559 410.189423,385.704559 
z"/>
<path fill="#FAFCFD" opacity="1.000000" stroke="none" 
	d="
M275.256531,360.888000 
	C278.556122,360.931091 281.855743,360.974182 285.835022,361.298737 
	C287.256378,361.752716 287.998047,361.925232 288.739746,362.097717 
	C288.739746,362.097717 288.891296,362.062378 289.149048,362.291046 
	C289.748810,362.630432 290.090851,362.741119 290.432861,362.851807 
	C290.432861,362.851807 290.762634,362.894989 291.070068,363.174500 
	C291.640625,363.669800 291.938324,363.814178 292.270660,363.887238 
	C295.201111,367.614868 298.131561,371.342499 301.039185,375.900757 
	C301.031372,379.858795 301.046387,382.986206 301.061401,386.113586 
	C300.500580,387.573334 299.939728,389.033081 298.979034,390.944275 
	C298.432495,391.714844 298.285797,392.033966 298.139130,392.353088 
	C295.671814,394.538330 293.204468,396.723511 290.115021,398.991577 
	C289.002594,399.345367 288.512238,399.616333 288.021912,399.887299 
	C287.740326,400.075409 287.431702,400.191772 286.567383,400.246399 
	C285.699799,400.403503 285.360870,400.550659 285.021973,400.697845 
	C281.978333,400.794586 278.934662,400.891296 275.258728,400.801666 
	C274.087280,400.698364 273.548126,400.781403 273.009003,400.864441 
	C271.300781,400.891754 269.592560,400.919067 267.473145,400.397217 
	C267.051483,386.919312 267.041046,373.990570 267.030609,361.061829 
	C267.030609,361.061829 267.027893,361.000000 267.344666,360.999268 
	C267.852661,360.956940 268.043823,360.915375 268.235016,360.873779 
	C268.871918,360.831116 269.508820,360.788452 270.904907,360.885193 
	C272.861603,360.979095 274.059052,360.933533 275.256531,360.888000 
M276.038849,386.249786 
	C276.145630,387.845337 276.252441,389.440887 276.366119,391.138885 
	C281.901917,392.028717 286.719543,391.842804 290.217499,387.256195 
	C292.876007,383.770294 293.146515,379.904236 291.238770,376.012817 
	C288.991943,371.429596 284.934601,370.081482 280.118500,369.955414 
	C277.202087,369.879089 275.837372,370.721649 276.006042,373.873688 
	C276.209503,377.676392 276.049866,381.498596 276.038849,386.249786 
z"/>
<path fill="#F3F9FE" opacity="1.000000" stroke="none" 
	d="
M358.618958,383.950439 
	C362.567871,391.434479 367.386627,393.601990 374.725159,390.957489 
	C379.716949,389.158661 380.170532,394.001221 382.897430,395.565430 
	C376.495483,402.962341 363.915558,402.917419 355.934052,395.691772 
	C347.232330,387.814117 346.532837,374.608826 354.370728,366.178467 
	C362.437347,357.502106 374.763184,356.672302 382.890503,364.431793 
	C380.247101,367.865173 378.162567,370.690887 372.489258,368.743469 
	C363.574219,365.683258 355.526428,375.647034 358.618958,383.950439 
z"/>
<path fill="#5289ED" opacity="1.000000" stroke="none" 
	d="
M399.459869,390.115173 
	C399.198853,390.076080 399.009399,389.938507 398.856598,389.524536 
	C402.317963,388.175018 405.814209,387.003418 409.749939,385.768188 
	C410.189423,385.704559 410.136353,385.716980 410.170593,386.091278 
	C410.767334,388.993835 409.692780,390.039215 407.173218,389.998138 
	C404.603394,389.956238 402.031097,390.069733 399.459869,390.115173 
z"/>
<path fill="#E1F1FE" opacity="1.000000" stroke="none" 
	d="
M266.713379,361.334503 
	C267.041046,373.990570 267.051483,386.919312 267.056702,400.300232 
	C266.742798,400.211304 266.163544,399.669373 266.165222,399.129242 
	C266.204041,386.621765 266.305939,374.114502 266.713379,361.334503 
z"/>
<path fill="#E1F1FE" opacity="1.000000" stroke="none" 
	d="
M301.261597,385.761963 
	C301.046387,382.986206 301.031372,379.858795 301.061951,376.261230 
	C301.225616,378.997498 301.343689,382.203949 301.261597,385.761963 
z"/>
<path fill="#E1F1FE" opacity="1.000000" stroke="none" 
	d="
M274.949341,360.768677 
	C274.059052,360.933533 272.861603,360.979095 271.217407,360.959625 
	C272.061157,360.812866 273.351654,360.731140 274.949341,360.768677 
z"/>
<path fill="#E1F1FE" opacity="1.000000" stroke="none" 
	d="
M288.518494,361.906006 
	C287.998047,361.925232 287.256378,361.752716 286.279297,361.411377 
	C286.795013,361.399780 287.546143,361.557037 288.518494,361.906006 
z"/>
<path fill="#E1F1FE" opacity="1.000000" stroke="none" 
	d="
M273.335388,400.938019 
	C273.548126,400.781403 274.087280,400.698364 274.805481,400.742188 
	C274.543640,400.916595 274.102722,400.964111 273.335388,400.938019 
z"/>
<path fill="#E1F1FE" opacity="1.000000" stroke="none" 
	d="
M288.311279,399.899353 
	C288.512238,399.616333 289.002594,399.345367 289.776581,399.051270 
	C289.573730,399.322571 289.087189,399.616974 288.311279,399.899353 
z"/>
<path fill="#E1F1FE" opacity="1.000000" stroke="none" 
	d="
M285.311707,400.723877 
	C285.360870,400.550659 285.699799,400.403503 286.319031,400.227173 
	C286.266724,400.382019 285.934082,400.565948 285.311707,400.723877 
z"/>
<path fill="#E1F1FE" opacity="1.000000" stroke="none" 
	d="
M298.360229,392.189667 
	C298.285797,392.033966 298.432495,391.714844 298.762146,391.204285 
	C298.823853,391.350647 298.702637,391.688446 298.360229,392.189667 
z"/>
<path fill="#E1F1FE" opacity="1.000000" stroke="none" 
	d="
M292.121704,363.674164 
	C291.938324,363.814178 291.640625,363.669800 291.199036,363.279510 
	C291.337952,363.223663 291.655334,363.342377 292.121704,363.674164 
z"/>
<path fill="#E1F1FE" opacity="1.000000" stroke="none" 
	d="
M290.235229,362.655518 
	C290.090851,362.741119 289.748810,362.630432 289.192688,362.355469 
	C289.331543,362.280579 289.684570,362.369904 290.235229,362.655518 
z"/>
<path fill="#E1F1FE" opacity="1.000000" stroke="none" 
	d="
M268.092468,360.769806 
	C268.043823,360.915375 267.852661,360.956940 267.368835,361.018616 
	C267.367432,360.914398 267.658661,360.790131 268.092468,360.769806 
z"/>
<path fill="#5A8DE2" opacity="1.000000" stroke="none" 
	d="
M321.139801,392.298706 
	C313.384399,387.575714 311.327972,380.114899 315.794617,374.070709 
	C319.189453,369.476868 325.508850,367.817688 330.532013,370.201355 
	C335.577362,372.595581 338.274658,378.275452 337.077545,383.984802 
	C335.989197,389.175507 331.004944,393.109070 325.422424,393.060730 
	C324.114594,393.049377 322.809967,392.666779 321.139801,392.298706 
M329.787323,381.331177 
	C328.438568,379.125427 327.089844,376.919708 325.333313,374.046997 
	C322.944000,378.153046 320.926849,381.619568 318.507599,385.777039 
	C323.261505,385.777039 326.966431,385.777039 330.835602,385.777039 
	C330.552368,384.378815 330.303436,383.149719 329.787323,381.331177 
z"/>
<path fill="#528AE6" opacity="1.000000" stroke="none" 
	d="
M399.723572,390.444946 
	C402.031097,390.069733 404.603394,389.956238 407.173218,389.998138 
	C409.692780,390.039215 410.767334,388.993835 410.193115,386.097778 
	C411.114899,386.858795 412.626801,387.919281 412.771210,389.141388 
	C412.862061,389.909943 410.909698,391.673767 409.861969,391.683350 
	C406.573486,391.713470 403.279266,391.124115 399.723572,390.444946 
z"/>
<path fill="#5B8DE3" opacity="1.000000" stroke="none" 
	d="
M276.043121,385.781067 
	C276.049866,381.498596 276.209503,377.676392 276.006042,373.873688 
	C275.837372,370.721649 277.202087,369.879089 280.118500,369.955414 
	C284.934601,370.081482 288.991943,371.429596 291.238770,376.012817 
	C293.146515,379.904236 292.876007,383.770294 290.217499,387.256195 
	C286.719543,391.842804 281.901917,392.028717 276.366119,391.138885 
	C276.252441,389.440887 276.145630,387.845337 276.043121,385.781067 
z"/>
<path fill="#D5E9FC" opacity="1.000000" stroke="none" 
	d="
M329.920898,381.625916 
	C330.303436,383.149719 330.552368,384.378815 330.835602,385.777039 
	C326.966431,385.777039 323.261505,385.777039 318.507599,385.777039 
	C320.926849,381.619568 322.944000,378.153046 325.333313,374.046997 
	C327.089844,376.919708 328.438568,379.125427 329.920898,381.625916 
z"/>
</svg>